G04 #@! TF.GenerationSoftware,KiCad,Pcbnew,10.0.0*
G04 #@! TF.CreationDate,2026-04-28T17:12:55+05:30*
G04 #@! TF.ProjectId,pico-epaper-th,7069636f-2d65-4706-9170-65722d74682e,rev?*
G04 #@! TF.SameCoordinates,PX5fbfb80PY87b5360*
G04 #@! TF.FileFunction,Legend,Top*
G04 #@! TF.FilePolarity,Positive*
%FSLAX46Y46*%
G04 Gerber Fmt 4.6, Leading zero omitted, Abs format (unit mm)*
G04 Created by KiCad (PCBNEW 10.0.0) date 2026-04-28 17:12:55*
%MOMM*%
%LPD*%
G01*
G04 APERTURE LIST*
%ADD10C,0.100000*%
%ADD11C,0.300000*%
%ADD12C,0.150000*%
%ADD13C,0.120000*%
G04 APERTURE END LIST*
D10*
X14200000Y51500000D02*
X14200000Y46500000D01*
X14200000Y51500000D02*
X19200000Y51500000D01*
X14200000Y18500000D02*
X14200000Y23500000D01*
X19200000Y18500000D02*
X14200000Y18500000D01*
X21200000Y49300000D02*
X21200000Y47800000D01*
X21200000Y48800000D02*
X22700000Y48800000D01*
X21200000Y21700000D02*
X21200000Y23200000D01*
X21200000Y21200000D02*
X22700000Y21200000D01*
X22700000Y21200000D02*
X21200000Y21200000D01*
X48800000Y49300000D02*
X48800000Y47800000D01*
X48800000Y48800000D02*
X47300000Y48800000D01*
X48800000Y21700000D02*
X48800000Y23200000D01*
X48800000Y21200000D02*
X47300000Y21200000D01*
X62200000Y51500000D02*
X57200000Y51500000D01*
X62200000Y51500000D02*
X62200000Y46500000D01*
X62200000Y18500000D02*
X57200000Y18500000D01*
X62200000Y18500000D02*
X62200000Y23500000D01*
X16327580Y40172307D02*
X16327580Y40743735D01*
X16327580Y40458021D02*
X17327580Y40458021D01*
X17327580Y40458021D02*
X17184723Y40553259D01*
X17184723Y40553259D02*
X17089485Y40648497D01*
X17089485Y40648497D02*
X17041866Y40743735D01*
X16422819Y39743735D02*
X16375200Y39696116D01*
X16375200Y39696116D02*
X16327580Y39743735D01*
X16327580Y39743735D02*
X16375200Y39791354D01*
X16375200Y39791354D02*
X16422819Y39743735D01*
X16422819Y39743735D02*
X16327580Y39743735D01*
X17327580Y38791355D02*
X17327580Y39267545D01*
X17327580Y39267545D02*
X16851390Y39315164D01*
X16851390Y39315164D02*
X16899009Y39267545D01*
X16899009Y39267545D02*
X16946628Y39172307D01*
X16946628Y39172307D02*
X16946628Y38934212D01*
X16946628Y38934212D02*
X16899009Y38838974D01*
X16899009Y38838974D02*
X16851390Y38791355D01*
X16851390Y38791355D02*
X16756152Y38743736D01*
X16756152Y38743736D02*
X16518057Y38743736D01*
X16518057Y38743736D02*
X16422819Y38791355D01*
X16422819Y38791355D02*
X16375200Y38838974D01*
X16375200Y38838974D02*
X16327580Y38934212D01*
X16327580Y38934212D02*
X16327580Y39172307D01*
X16327580Y39172307D02*
X16375200Y39267545D01*
X16375200Y39267545D02*
X16422819Y39315164D01*
X16994247Y37886593D02*
X16327580Y37886593D01*
X17375200Y38124688D02*
X16660914Y38362783D01*
X16660914Y38362783D02*
X16660914Y37743736D01*
X16327580Y37362783D02*
X16994247Y37362783D01*
X17327580Y37362783D02*
X17279961Y37410402D01*
X17279961Y37410402D02*
X17232342Y37362783D01*
X17232342Y37362783D02*
X17279961Y37315164D01*
X17279961Y37315164D02*
X17327580Y37362783D01*
X17327580Y37362783D02*
X17232342Y37362783D01*
X16994247Y36886593D02*
X16327580Y36886593D01*
X16899009Y36886593D02*
X16946628Y36838974D01*
X16946628Y36838974D02*
X16994247Y36743736D01*
X16994247Y36743736D02*
X16994247Y36600879D01*
X16994247Y36600879D02*
X16946628Y36505641D01*
X16946628Y36505641D02*
X16851390Y36458022D01*
X16851390Y36458022D02*
X16327580Y36458022D01*
X16375200Y35553260D02*
X16327580Y35648498D01*
X16327580Y35648498D02*
X16327580Y35838974D01*
X16327580Y35838974D02*
X16375200Y35934212D01*
X16375200Y35934212D02*
X16422819Y35981831D01*
X16422819Y35981831D02*
X16518057Y36029450D01*
X16518057Y36029450D02*
X16803771Y36029450D01*
X16803771Y36029450D02*
X16899009Y35981831D01*
X16899009Y35981831D02*
X16946628Y35934212D01*
X16946628Y35934212D02*
X16994247Y35838974D01*
X16994247Y35838974D02*
X16994247Y35648498D01*
X16994247Y35648498D02*
X16946628Y35553260D01*
X16327580Y35124688D02*
X17327580Y35124688D01*
X16327580Y34696117D02*
X16851390Y34696117D01*
X16851390Y34696117D02*
X16946628Y34743736D01*
X16946628Y34743736D02*
X16994247Y34838974D01*
X16994247Y34838974D02*
X16994247Y34981831D01*
X16994247Y34981831D02*
X16946628Y35077069D01*
X16946628Y35077069D02*
X16899009Y35124688D01*
X16375200Y33077069D02*
X16327580Y33172307D01*
X16327580Y33172307D02*
X16327580Y33362783D01*
X16327580Y33362783D02*
X16375200Y33458021D01*
X16375200Y33458021D02*
X16470438Y33505640D01*
X16470438Y33505640D02*
X16851390Y33505640D01*
X16851390Y33505640D02*
X16946628Y33458021D01*
X16946628Y33458021D02*
X16994247Y33362783D01*
X16994247Y33362783D02*
X16994247Y33172307D01*
X16994247Y33172307D02*
X16946628Y33077069D01*
X16946628Y33077069D02*
X16851390Y33029450D01*
X16851390Y33029450D02*
X16756152Y33029450D01*
X16756152Y33029450D02*
X16660914Y33505640D01*
X16708533Y32600878D02*
X16708533Y31838973D01*
X16994247Y31362783D02*
X15994247Y31362783D01*
X16946628Y31362783D02*
X16994247Y31267545D01*
X16994247Y31267545D02*
X16994247Y31077069D01*
X16994247Y31077069D02*
X16946628Y30981831D01*
X16946628Y30981831D02*
X16899009Y30934212D01*
X16899009Y30934212D02*
X16803771Y30886593D01*
X16803771Y30886593D02*
X16518057Y30886593D01*
X16518057Y30886593D02*
X16422819Y30934212D01*
X16422819Y30934212D02*
X16375200Y30981831D01*
X16375200Y30981831D02*
X16327580Y31077069D01*
X16327580Y31077069D02*
X16327580Y31267545D01*
X16327580Y31267545D02*
X16375200Y31362783D01*
X16327580Y30029450D02*
X16851390Y30029450D01*
X16851390Y30029450D02*
X16946628Y30077069D01*
X16946628Y30077069D02*
X16994247Y30172307D01*
X16994247Y30172307D02*
X16994247Y30362783D01*
X16994247Y30362783D02*
X16946628Y30458021D01*
X16375200Y30029450D02*
X16327580Y30124688D01*
X16327580Y30124688D02*
X16327580Y30362783D01*
X16327580Y30362783D02*
X16375200Y30458021D01*
X16375200Y30458021D02*
X16470438Y30505640D01*
X16470438Y30505640D02*
X16565676Y30505640D01*
X16565676Y30505640D02*
X16660914Y30458021D01*
X16660914Y30458021D02*
X16708533Y30362783D01*
X16708533Y30362783D02*
X16708533Y30124688D01*
X16708533Y30124688D02*
X16756152Y30029450D01*
X16994247Y29553259D02*
X15994247Y29553259D01*
X16946628Y29553259D02*
X16994247Y29458021D01*
X16994247Y29458021D02*
X16994247Y29267545D01*
X16994247Y29267545D02*
X16946628Y29172307D01*
X16946628Y29172307D02*
X16899009Y29124688D01*
X16899009Y29124688D02*
X16803771Y29077069D01*
X16803771Y29077069D02*
X16518057Y29077069D01*
X16518057Y29077069D02*
X16422819Y29124688D01*
X16422819Y29124688D02*
X16375200Y29172307D01*
X16375200Y29172307D02*
X16327580Y29267545D01*
X16327580Y29267545D02*
X16327580Y29458021D01*
X16327580Y29458021D02*
X16375200Y29553259D01*
X16375200Y28267545D02*
X16327580Y28362783D01*
X16327580Y28362783D02*
X16327580Y28553259D01*
X16327580Y28553259D02*
X16375200Y28648497D01*
X16375200Y28648497D02*
X16470438Y28696116D01*
X16470438Y28696116D02*
X16851390Y28696116D01*
X16851390Y28696116D02*
X16946628Y28648497D01*
X16946628Y28648497D02*
X16994247Y28553259D01*
X16994247Y28553259D02*
X16994247Y28362783D01*
X16994247Y28362783D02*
X16946628Y28267545D01*
X16946628Y28267545D02*
X16851390Y28219926D01*
X16851390Y28219926D02*
X16756152Y28219926D01*
X16756152Y28219926D02*
X16660914Y28696116D01*
X16327580Y27791354D02*
X16994247Y27791354D01*
X16803771Y27791354D02*
X16899009Y27743735D01*
X16899009Y27743735D02*
X16946628Y27696116D01*
X16946628Y27696116D02*
X16994247Y27600878D01*
X16994247Y27600878D02*
X16994247Y27505640D01*
D11*
X18268796Y1499172D02*
X17554510Y1499172D01*
X17554510Y1499172D02*
X17554510Y2999172D01*
X18983082Y1499172D02*
X18840225Y1570600D01*
X18840225Y1570600D02*
X18768796Y1642029D01*
X18768796Y1642029D02*
X18697368Y1784886D01*
X18697368Y1784886D02*
X18697368Y2213458D01*
X18697368Y2213458D02*
X18768796Y2356315D01*
X18768796Y2356315D02*
X18840225Y2427743D01*
X18840225Y2427743D02*
X18983082Y2499172D01*
X18983082Y2499172D02*
X19197368Y2499172D01*
X19197368Y2499172D02*
X19340225Y2427743D01*
X19340225Y2427743D02*
X19411654Y2356315D01*
X19411654Y2356315D02*
X19483082Y2213458D01*
X19483082Y2213458D02*
X19483082Y1784886D01*
X19483082Y1784886D02*
X19411654Y1642029D01*
X19411654Y1642029D02*
X19340225Y1570600D01*
X19340225Y1570600D02*
X19197368Y1499172D01*
X19197368Y1499172D02*
X18983082Y1499172D01*
X19983082Y2499172D02*
X20268797Y1499172D01*
X20268797Y1499172D02*
X20554511Y2213458D01*
X20554511Y2213458D02*
X20840225Y1499172D01*
X20840225Y1499172D02*
X21125939Y2499172D01*
X22840225Y1499172D02*
X22840225Y2999172D01*
X22840225Y2999172D02*
X23411654Y2999172D01*
X23411654Y2999172D02*
X23554511Y2927743D01*
X23554511Y2927743D02*
X23625940Y2856315D01*
X23625940Y2856315D02*
X23697368Y2713458D01*
X23697368Y2713458D02*
X23697368Y2499172D01*
X23697368Y2499172D02*
X23625940Y2356315D01*
X23625940Y2356315D02*
X23554511Y2284886D01*
X23554511Y2284886D02*
X23411654Y2213458D01*
X23411654Y2213458D02*
X22840225Y2213458D01*
X24554511Y1499172D02*
X24411654Y1570600D01*
X24411654Y1570600D02*
X24340225Y1642029D01*
X24340225Y1642029D02*
X24268797Y1784886D01*
X24268797Y1784886D02*
X24268797Y2213458D01*
X24268797Y2213458D02*
X24340225Y2356315D01*
X24340225Y2356315D02*
X24411654Y2427743D01*
X24411654Y2427743D02*
X24554511Y2499172D01*
X24554511Y2499172D02*
X24768797Y2499172D01*
X24768797Y2499172D02*
X24911654Y2427743D01*
X24911654Y2427743D02*
X24983083Y2356315D01*
X24983083Y2356315D02*
X25054511Y2213458D01*
X25054511Y2213458D02*
X25054511Y1784886D01*
X25054511Y1784886D02*
X24983083Y1642029D01*
X24983083Y1642029D02*
X24911654Y1570600D01*
X24911654Y1570600D02*
X24768797Y1499172D01*
X24768797Y1499172D02*
X24554511Y1499172D01*
X25554511Y2499172D02*
X25840226Y1499172D01*
X25840226Y1499172D02*
X26125940Y2213458D01*
X26125940Y2213458D02*
X26411654Y1499172D01*
X26411654Y1499172D02*
X26697368Y2499172D01*
X27840226Y1570600D02*
X27697369Y1499172D01*
X27697369Y1499172D02*
X27411655Y1499172D01*
X27411655Y1499172D02*
X27268797Y1570600D01*
X27268797Y1570600D02*
X27197369Y1713458D01*
X27197369Y1713458D02*
X27197369Y2284886D01*
X27197369Y2284886D02*
X27268797Y2427743D01*
X27268797Y2427743D02*
X27411655Y2499172D01*
X27411655Y2499172D02*
X27697369Y2499172D01*
X27697369Y2499172D02*
X27840226Y2427743D01*
X27840226Y2427743D02*
X27911655Y2284886D01*
X27911655Y2284886D02*
X27911655Y2142029D01*
X27911655Y2142029D02*
X27197369Y1999172D01*
X28554511Y1499172D02*
X28554511Y2499172D01*
X28554511Y2213458D02*
X28625940Y2356315D01*
X28625940Y2356315D02*
X28697369Y2427743D01*
X28697369Y2427743D02*
X28840226Y2499172D01*
X28840226Y2499172D02*
X28983083Y2499172D01*
X30411654Y2999172D02*
X31268797Y2999172D01*
X30840225Y1499172D02*
X30840225Y2999172D01*
X32840225Y3070600D02*
X31554511Y1142029D01*
X33340225Y1499172D02*
X33340225Y2999172D01*
X33340225Y2284886D02*
X34197368Y2284886D01*
X34197368Y1499172D02*
X34197368Y2999172D01*
X36625940Y1570600D02*
X36483083Y1499172D01*
X36483083Y1499172D02*
X36197369Y1499172D01*
X36197369Y1499172D02*
X36054511Y1570600D01*
X36054511Y1570600D02*
X35983083Y1713458D01*
X35983083Y1713458D02*
X35983083Y2284886D01*
X35983083Y2284886D02*
X36054511Y2427743D01*
X36054511Y2427743D02*
X36197369Y2499172D01*
X36197369Y2499172D02*
X36483083Y2499172D01*
X36483083Y2499172D02*
X36625940Y2427743D01*
X36625940Y2427743D02*
X36697369Y2284886D01*
X36697369Y2284886D02*
X36697369Y2142029D01*
X36697369Y2142029D02*
X35983083Y1999172D01*
X37340225Y1499172D02*
X37340225Y2999172D01*
X37340225Y2999172D02*
X37911654Y2999172D01*
X37911654Y2999172D02*
X38054511Y2927743D01*
X38054511Y2927743D02*
X38125940Y2856315D01*
X38125940Y2856315D02*
X38197368Y2713458D01*
X38197368Y2713458D02*
X38197368Y2499172D01*
X38197368Y2499172D02*
X38125940Y2356315D01*
X38125940Y2356315D02*
X38054511Y2284886D01*
X38054511Y2284886D02*
X37911654Y2213458D01*
X37911654Y2213458D02*
X37340225Y2213458D01*
X39483083Y1499172D02*
X39483083Y2284886D01*
X39483083Y2284886D02*
X39411654Y2427743D01*
X39411654Y2427743D02*
X39268797Y2499172D01*
X39268797Y2499172D02*
X38983083Y2499172D01*
X38983083Y2499172D02*
X38840225Y2427743D01*
X39483083Y1570600D02*
X39340225Y1499172D01*
X39340225Y1499172D02*
X38983083Y1499172D01*
X38983083Y1499172D02*
X38840225Y1570600D01*
X38840225Y1570600D02*
X38768797Y1713458D01*
X38768797Y1713458D02*
X38768797Y1856315D01*
X38768797Y1856315D02*
X38840225Y1999172D01*
X38840225Y1999172D02*
X38983083Y2070600D01*
X38983083Y2070600D02*
X39340225Y2070600D01*
X39340225Y2070600D02*
X39483083Y2142029D01*
X40197368Y2499172D02*
X40197368Y999172D01*
X40197368Y2427743D02*
X40340226Y2499172D01*
X40340226Y2499172D02*
X40625940Y2499172D01*
X40625940Y2499172D02*
X40768797Y2427743D01*
X40768797Y2427743D02*
X40840226Y2356315D01*
X40840226Y2356315D02*
X40911654Y2213458D01*
X40911654Y2213458D02*
X40911654Y1784886D01*
X40911654Y1784886D02*
X40840226Y1642029D01*
X40840226Y1642029D02*
X40768797Y1570600D01*
X40768797Y1570600D02*
X40625940Y1499172D01*
X40625940Y1499172D02*
X40340226Y1499172D01*
X40340226Y1499172D02*
X40197368Y1570600D01*
X42125940Y1570600D02*
X41983083Y1499172D01*
X41983083Y1499172D02*
X41697369Y1499172D01*
X41697369Y1499172D02*
X41554511Y1570600D01*
X41554511Y1570600D02*
X41483083Y1713458D01*
X41483083Y1713458D02*
X41483083Y2284886D01*
X41483083Y2284886D02*
X41554511Y2427743D01*
X41554511Y2427743D02*
X41697369Y2499172D01*
X41697369Y2499172D02*
X41983083Y2499172D01*
X41983083Y2499172D02*
X42125940Y2427743D01*
X42125940Y2427743D02*
X42197369Y2284886D01*
X42197369Y2284886D02*
X42197369Y2142029D01*
X42197369Y2142029D02*
X41483083Y1999172D01*
X42840225Y1499172D02*
X42840225Y2499172D01*
X42840225Y2213458D02*
X42911654Y2356315D01*
X42911654Y2356315D02*
X42983083Y2427743D01*
X42983083Y2427743D02*
X43125940Y2499172D01*
X43125940Y2499172D02*
X43268797Y2499172D01*
X44911653Y1499172D02*
X44911653Y2999172D01*
X44911653Y2999172D02*
X45268796Y2999172D01*
X45268796Y2999172D02*
X45483082Y2927743D01*
X45483082Y2927743D02*
X45625939Y2784886D01*
X45625939Y2784886D02*
X45697368Y2642029D01*
X45697368Y2642029D02*
X45768796Y2356315D01*
X45768796Y2356315D02*
X45768796Y2142029D01*
X45768796Y2142029D02*
X45697368Y1856315D01*
X45697368Y1856315D02*
X45625939Y1713458D01*
X45625939Y1713458D02*
X45483082Y1570600D01*
X45483082Y1570600D02*
X45268796Y1499172D01*
X45268796Y1499172D02*
X44911653Y1499172D01*
X46411653Y1499172D02*
X46411653Y2499172D01*
X46411653Y2999172D02*
X46340225Y2927743D01*
X46340225Y2927743D02*
X46411653Y2856315D01*
X46411653Y2856315D02*
X46483082Y2927743D01*
X46483082Y2927743D02*
X46411653Y2999172D01*
X46411653Y2999172D02*
X46411653Y2856315D01*
X47054511Y1570600D02*
X47197368Y1499172D01*
X47197368Y1499172D02*
X47483082Y1499172D01*
X47483082Y1499172D02*
X47625939Y1570600D01*
X47625939Y1570600D02*
X47697368Y1713458D01*
X47697368Y1713458D02*
X47697368Y1784886D01*
X47697368Y1784886D02*
X47625939Y1927743D01*
X47625939Y1927743D02*
X47483082Y1999172D01*
X47483082Y1999172D02*
X47268797Y1999172D01*
X47268797Y1999172D02*
X47125939Y2070600D01*
X47125939Y2070600D02*
X47054511Y2213458D01*
X47054511Y2213458D02*
X47054511Y2284886D01*
X47054511Y2284886D02*
X47125939Y2427743D01*
X47125939Y2427743D02*
X47268797Y2499172D01*
X47268797Y2499172D02*
X47483082Y2499172D01*
X47483082Y2499172D02*
X47625939Y2427743D01*
X48340225Y2499172D02*
X48340225Y999172D01*
X48340225Y2427743D02*
X48483083Y2499172D01*
X48483083Y2499172D02*
X48768797Y2499172D01*
X48768797Y2499172D02*
X48911654Y2427743D01*
X48911654Y2427743D02*
X48983083Y2356315D01*
X48983083Y2356315D02*
X49054511Y2213458D01*
X49054511Y2213458D02*
X49054511Y1784886D01*
X49054511Y1784886D02*
X48983083Y1642029D01*
X48983083Y1642029D02*
X48911654Y1570600D01*
X48911654Y1570600D02*
X48768797Y1499172D01*
X48768797Y1499172D02*
X48483083Y1499172D01*
X48483083Y1499172D02*
X48340225Y1570600D01*
X49911654Y1499172D02*
X49768797Y1570600D01*
X49768797Y1570600D02*
X49697368Y1713458D01*
X49697368Y1713458D02*
X49697368Y2999172D01*
X51125940Y1499172D02*
X51125940Y2284886D01*
X51125940Y2284886D02*
X51054511Y2427743D01*
X51054511Y2427743D02*
X50911654Y2499172D01*
X50911654Y2499172D02*
X50625940Y2499172D01*
X50625940Y2499172D02*
X50483082Y2427743D01*
X51125940Y1570600D02*
X50983082Y1499172D01*
X50983082Y1499172D02*
X50625940Y1499172D01*
X50625940Y1499172D02*
X50483082Y1570600D01*
X50483082Y1570600D02*
X50411654Y1713458D01*
X50411654Y1713458D02*
X50411654Y1856315D01*
X50411654Y1856315D02*
X50483082Y1999172D01*
X50483082Y1999172D02*
X50625940Y2070600D01*
X50625940Y2070600D02*
X50983082Y2070600D01*
X50983082Y2070600D02*
X51125940Y2142029D01*
X51697368Y2499172D02*
X52054511Y1499172D01*
X52411654Y2499172D02*
X52054511Y1499172D01*
X52054511Y1499172D02*
X51911654Y1142029D01*
X51911654Y1142029D02*
X51840225Y1070600D01*
X51840225Y1070600D02*
X51697368Y999172D01*
D12*
X5938095Y24235181D02*
X5938095Y23425658D01*
X5938095Y23425658D02*
X5985714Y23330420D01*
X5985714Y23330420D02*
X6033333Y23282800D01*
X6033333Y23282800D02*
X6128571Y23235181D01*
X6128571Y23235181D02*
X6319047Y23235181D01*
X6319047Y23235181D02*
X6414285Y23282800D01*
X6414285Y23282800D02*
X6461904Y23330420D01*
X6461904Y23330420D02*
X6509523Y23425658D01*
X6509523Y23425658D02*
X6509523Y24235181D01*
X6890476Y24235181D02*
X7509523Y24235181D01*
X7509523Y24235181D02*
X7176190Y23854229D01*
X7176190Y23854229D02*
X7319047Y23854229D01*
X7319047Y23854229D02*
X7414285Y23806610D01*
X7414285Y23806610D02*
X7461904Y23758991D01*
X7461904Y23758991D02*
X7509523Y23663753D01*
X7509523Y23663753D02*
X7509523Y23425658D01*
X7509523Y23425658D02*
X7461904Y23330420D01*
X7461904Y23330420D02*
X7414285Y23282800D01*
X7414285Y23282800D02*
X7319047Y23235181D01*
X7319047Y23235181D02*
X7033333Y23235181D01*
X7033333Y23235181D02*
X6938095Y23282800D01*
X6938095Y23282800D02*
X6890476Y23330420D01*
X48533333Y54740420D02*
X48485714Y54692800D01*
X48485714Y54692800D02*
X48342857Y54645181D01*
X48342857Y54645181D02*
X48247619Y54645181D01*
X48247619Y54645181D02*
X48104762Y54692800D01*
X48104762Y54692800D02*
X48009524Y54788039D01*
X48009524Y54788039D02*
X47961905Y54883277D01*
X47961905Y54883277D02*
X47914286Y55073753D01*
X47914286Y55073753D02*
X47914286Y55216610D01*
X47914286Y55216610D02*
X47961905Y55407086D01*
X47961905Y55407086D02*
X48009524Y55502324D01*
X48009524Y55502324D02*
X48104762Y55597562D01*
X48104762Y55597562D02*
X48247619Y55645181D01*
X48247619Y55645181D02*
X48342857Y55645181D01*
X48342857Y55645181D02*
X48485714Y55597562D01*
X48485714Y55597562D02*
X48533333Y55549943D01*
X48866667Y55645181D02*
X49485714Y55645181D01*
X49485714Y55645181D02*
X49152381Y55264229D01*
X49152381Y55264229D02*
X49295238Y55264229D01*
X49295238Y55264229D02*
X49390476Y55216610D01*
X49390476Y55216610D02*
X49438095Y55168991D01*
X49438095Y55168991D02*
X49485714Y55073753D01*
X49485714Y55073753D02*
X49485714Y54835658D01*
X49485714Y54835658D02*
X49438095Y54740420D01*
X49438095Y54740420D02*
X49390476Y54692800D01*
X49390476Y54692800D02*
X49295238Y54645181D01*
X49295238Y54645181D02*
X49009524Y54645181D01*
X49009524Y54645181D02*
X48914286Y54692800D01*
X48914286Y54692800D02*
X48866667Y54740420D01*
X49633333Y60140420D02*
X49585714Y60092800D01*
X49585714Y60092800D02*
X49442857Y60045181D01*
X49442857Y60045181D02*
X49347619Y60045181D01*
X49347619Y60045181D02*
X49204762Y60092800D01*
X49204762Y60092800D02*
X49109524Y60188039D01*
X49109524Y60188039D02*
X49061905Y60283277D01*
X49061905Y60283277D02*
X49014286Y60473753D01*
X49014286Y60473753D02*
X49014286Y60616610D01*
X49014286Y60616610D02*
X49061905Y60807086D01*
X49061905Y60807086D02*
X49109524Y60902324D01*
X49109524Y60902324D02*
X49204762Y60997562D01*
X49204762Y60997562D02*
X49347619Y61045181D01*
X49347619Y61045181D02*
X49442857Y61045181D01*
X49442857Y61045181D02*
X49585714Y60997562D01*
X49585714Y60997562D02*
X49633333Y60949943D01*
X50490476Y60711848D02*
X50490476Y60045181D01*
X50252381Y61092800D02*
X50014286Y60378515D01*
X50014286Y60378515D02*
X50633333Y60378515D01*
X61838095Y65445181D02*
X61838095Y64635658D01*
X61838095Y64635658D02*
X61885714Y64540420D01*
X61885714Y64540420D02*
X61933333Y64492800D01*
X61933333Y64492800D02*
X62028571Y64445181D01*
X62028571Y64445181D02*
X62219047Y64445181D01*
X62219047Y64445181D02*
X62314285Y64492800D01*
X62314285Y64492800D02*
X62361904Y64540420D01*
X62361904Y64540420D02*
X62409523Y64635658D01*
X62409523Y64635658D02*
X62409523Y65445181D01*
X62838095Y65349943D02*
X62885714Y65397562D01*
X62885714Y65397562D02*
X62980952Y65445181D01*
X62980952Y65445181D02*
X63219047Y65445181D01*
X63219047Y65445181D02*
X63314285Y65397562D01*
X63314285Y65397562D02*
X63361904Y65349943D01*
X63361904Y65349943D02*
X63409523Y65254705D01*
X63409523Y65254705D02*
X63409523Y65159467D01*
X63409523Y65159467D02*
X63361904Y65016610D01*
X63361904Y65016610D02*
X62790476Y64445181D01*
X62790476Y64445181D02*
X63409523Y64445181D01*
X53538095Y3585181D02*
X53538095Y2775658D01*
X53538095Y2775658D02*
X53585714Y2680420D01*
X53585714Y2680420D02*
X53633333Y2632800D01*
X53633333Y2632800D02*
X53728571Y2585181D01*
X53728571Y2585181D02*
X53919047Y2585181D01*
X53919047Y2585181D02*
X54014285Y2632800D01*
X54014285Y2632800D02*
X54061904Y2680420D01*
X54061904Y2680420D02*
X54109523Y2775658D01*
X54109523Y2775658D02*
X54109523Y3585181D01*
X55109523Y2585181D02*
X54538095Y2585181D01*
X54823809Y2585181D02*
X54823809Y3585181D01*
X54823809Y3585181D02*
X54728571Y3442324D01*
X54728571Y3442324D02*
X54633333Y3347086D01*
X54633333Y3347086D02*
X54538095Y3299467D01*
X53104761Y58249943D02*
X53009523Y58297562D01*
X53009523Y58297562D02*
X52914285Y58392800D01*
X52914285Y58392800D02*
X52771428Y58535658D01*
X52771428Y58535658D02*
X52676190Y58583277D01*
X52676190Y58583277D02*
X52580952Y58583277D01*
X52628571Y58345181D02*
X52533333Y58392800D01*
X52533333Y58392800D02*
X52438095Y58488039D01*
X52438095Y58488039D02*
X52390476Y58678515D01*
X52390476Y58678515D02*
X52390476Y59011848D01*
X52390476Y59011848D02*
X52438095Y59202324D01*
X52438095Y59202324D02*
X52533333Y59297562D01*
X52533333Y59297562D02*
X52628571Y59345181D01*
X52628571Y59345181D02*
X52819047Y59345181D01*
X52819047Y59345181D02*
X52914285Y59297562D01*
X52914285Y59297562D02*
X53009523Y59202324D01*
X53009523Y59202324D02*
X53057142Y59011848D01*
X53057142Y59011848D02*
X53057142Y58678515D01*
X53057142Y58678515D02*
X53009523Y58488039D01*
X53009523Y58488039D02*
X52914285Y58392800D01*
X52914285Y58392800D02*
X52819047Y58345181D01*
X52819047Y58345181D02*
X52628571Y58345181D01*
X54009523Y58345181D02*
X53438095Y58345181D01*
X53723809Y58345181D02*
X53723809Y59345181D01*
X53723809Y59345181D02*
X53628571Y59202324D01*
X53628571Y59202324D02*
X53533333Y59107086D01*
X53533333Y59107086D02*
X53438095Y59059467D01*
X47036660Y17865896D02*
X47512850Y17865896D01*
X46941422Y17580181D02*
X47274755Y18580181D01*
X47274755Y18580181D02*
X47608088Y17580181D01*
X48465231Y17580181D02*
X47893803Y17580181D01*
X48179517Y17580181D02*
X48179517Y18580181D01*
X48179517Y18580181D02*
X48084279Y18437324D01*
X48084279Y18437324D02*
X47989041Y18342086D01*
X47989041Y18342086D02*
X47893803Y18294467D01*
X62433333Y55940420D02*
X62385714Y55892800D01*
X62385714Y55892800D02*
X62242857Y55845181D01*
X62242857Y55845181D02*
X62147619Y55845181D01*
X62147619Y55845181D02*
X62004762Y55892800D01*
X62004762Y55892800D02*
X61909524Y55988039D01*
X61909524Y55988039D02*
X61861905Y56083277D01*
X61861905Y56083277D02*
X61814286Y56273753D01*
X61814286Y56273753D02*
X61814286Y56416610D01*
X61814286Y56416610D02*
X61861905Y56607086D01*
X61861905Y56607086D02*
X61909524Y56702324D01*
X61909524Y56702324D02*
X62004762Y56797562D01*
X62004762Y56797562D02*
X62147619Y56845181D01*
X62147619Y56845181D02*
X62242857Y56845181D01*
X62242857Y56845181D02*
X62385714Y56797562D01*
X62385714Y56797562D02*
X62433333Y56749943D01*
X62814286Y56749943D02*
X62861905Y56797562D01*
X62861905Y56797562D02*
X62957143Y56845181D01*
X62957143Y56845181D02*
X63195238Y56845181D01*
X63195238Y56845181D02*
X63290476Y56797562D01*
X63290476Y56797562D02*
X63338095Y56749943D01*
X63338095Y56749943D02*
X63385714Y56654705D01*
X63385714Y56654705D02*
X63385714Y56559467D01*
X63385714Y56559467D02*
X63338095Y56416610D01*
X63338095Y56416610D02*
X62766667Y55845181D01*
X62766667Y55845181D02*
X63385714Y55845181D01*
X68154819Y58645834D02*
X67678628Y58312501D01*
X68154819Y58074406D02*
X67154819Y58074406D01*
X67154819Y58074406D02*
X67154819Y58455358D01*
X67154819Y58455358D02*
X67202438Y58550596D01*
X67202438Y58550596D02*
X67250057Y58598215D01*
X67250057Y58598215D02*
X67345295Y58645834D01*
X67345295Y58645834D02*
X67488152Y58645834D01*
X67488152Y58645834D02*
X67583390Y58598215D01*
X67583390Y58598215D02*
X67631009Y58550596D01*
X67631009Y58550596D02*
X67678628Y58455358D01*
X67678628Y58455358D02*
X67678628Y58074406D01*
X68154819Y59598215D02*
X68154819Y59026787D01*
X68154819Y59312501D02*
X67154819Y59312501D01*
X67154819Y59312501D02*
X67297676Y59217263D01*
X67297676Y59217263D02*
X67392914Y59122025D01*
X67392914Y59122025D02*
X67440533Y59026787D01*
X47633333Y65640420D02*
X47585714Y65592800D01*
X47585714Y65592800D02*
X47442857Y65545181D01*
X47442857Y65545181D02*
X47347619Y65545181D01*
X47347619Y65545181D02*
X47204762Y65592800D01*
X47204762Y65592800D02*
X47109524Y65688039D01*
X47109524Y65688039D02*
X47061905Y65783277D01*
X47061905Y65783277D02*
X47014286Y65973753D01*
X47014286Y65973753D02*
X47014286Y66116610D01*
X47014286Y66116610D02*
X47061905Y66307086D01*
X47061905Y66307086D02*
X47109524Y66402324D01*
X47109524Y66402324D02*
X47204762Y66497562D01*
X47204762Y66497562D02*
X47347619Y66545181D01*
X47347619Y66545181D02*
X47442857Y66545181D01*
X47442857Y66545181D02*
X47585714Y66497562D01*
X47585714Y66497562D02*
X47633333Y66449943D01*
X48585714Y65545181D02*
X48014286Y65545181D01*
X48300000Y65545181D02*
X48300000Y66545181D01*
X48300000Y66545181D02*
X48204762Y66402324D01*
X48204762Y66402324D02*
X48109524Y66307086D01*
X48109524Y66307086D02*
X48014286Y66259467D01*
X58414285Y67768991D02*
X58557142Y67721372D01*
X58557142Y67721372D02*
X58604761Y67673753D01*
X58604761Y67673753D02*
X58652380Y67578515D01*
X58652380Y67578515D02*
X58652380Y67435658D01*
X58652380Y67435658D02*
X58604761Y67340420D01*
X58604761Y67340420D02*
X58557142Y67292800D01*
X58557142Y67292800D02*
X58461904Y67245181D01*
X58461904Y67245181D02*
X58080952Y67245181D01*
X58080952Y67245181D02*
X58080952Y68245181D01*
X58080952Y68245181D02*
X58414285Y68245181D01*
X58414285Y68245181D02*
X58509523Y68197562D01*
X58509523Y68197562D02*
X58557142Y68149943D01*
X58557142Y68149943D02*
X58604761Y68054705D01*
X58604761Y68054705D02*
X58604761Y67959467D01*
X58604761Y67959467D02*
X58557142Y67864229D01*
X58557142Y67864229D02*
X58509523Y67816610D01*
X58509523Y67816610D02*
X58414285Y67768991D01*
X58414285Y67768991D02*
X58080952Y67768991D01*
X58938095Y68245181D02*
X59509523Y68245181D01*
X59223809Y67245181D02*
X59223809Y68245181D01*
X60366666Y67245181D02*
X59795238Y67245181D01*
X60080952Y67245181D02*
X60080952Y68245181D01*
X60080952Y68245181D02*
X59985714Y68102324D01*
X59985714Y68102324D02*
X59890476Y68007086D01*
X59890476Y68007086D02*
X59795238Y67959467D01*
G04 #@! TO.C,U3*
D13*
X5320000Y27340000D02*
X5320000Y45230000D01*
X8080000Y45230000D02*
X5320000Y45230000D01*
X8080000Y27340000D02*
X5320000Y27340000D01*
X8080000Y27340000D02*
X8080000Y45230000D01*
X8080000Y26070000D02*
X8080000Y24690000D01*
X8080000Y24690000D02*
X6700000Y24690000D01*
G04 #@! TO.C,C3*
X48653733Y57310000D02*
X48946267Y57310000D01*
X48653733Y56290000D02*
X48946267Y56290000D01*
G04 #@! TO.C,C4*
X49190000Y63346267D02*
X49190000Y63053733D01*
X50210000Y63346267D02*
X50210000Y63053733D01*
G04 #@! TO.C,U2*
X61040000Y61822500D02*
X61090000Y61822500D01*
X61040000Y60002500D02*
X61040000Y61822500D01*
X61090000Y60002500D02*
X61040000Y60002500D01*
X64110000Y61822500D02*
X64160000Y61822500D01*
X64160000Y61822500D02*
X64160000Y60002500D01*
X64160000Y60002500D02*
X64110000Y60002500D01*
X61090000Y59462500D02*
X60760000Y59222500D01*
X60760000Y59702500D01*
X61090000Y59462500D01*
G36*
X61090000Y59462500D02*
G01*
X60760000Y59222500D01*
X60760000Y59702500D01*
X61090000Y59462500D01*
G37*
G04 #@! TO.C,U1*
X52920000Y6690000D02*
X52920000Y14420000D01*
X55680000Y14420000D02*
X52920000Y14420000D01*
X55680000Y6690000D02*
X52920000Y6690000D01*
X55680000Y6690000D02*
X55680000Y14420000D01*
X55680000Y5420000D02*
X55680000Y4040000D01*
X55680000Y4040000D02*
X54300000Y4040000D01*
G04 #@! TO.C,Q1*
X53865000Y63006911D02*
X53865000Y62076911D01*
X53865000Y63006911D02*
X55325000Y63006911D01*
X53865000Y59846911D02*
X53865000Y60776911D01*
X54665000Y59846911D02*
X53865000Y59846911D01*
X54665000Y59846911D02*
X55465000Y59846911D01*
X56205000Y59486911D02*
X55725000Y59486911D01*
X55965000Y59816911D01*
X56205000Y59486911D01*
G36*
X56205000Y59486911D02*
G01*
X55725000Y59486911D01*
X55965000Y59816911D01*
X56205000Y59486911D01*
G37*
G04 #@! TO.C,A1*
X24390000Y65870000D02*
X23910000Y65870000D01*
X24390000Y65870000D02*
X24390000Y65450000D01*
X24390000Y63330000D02*
X24390000Y62910000D01*
X24390000Y60790000D02*
X24390000Y60370000D01*
X24390000Y58250000D02*
X24390000Y57830000D01*
X24390000Y55710000D02*
X24390000Y55290000D01*
X24390000Y53170000D02*
X24390000Y52750000D01*
X24390000Y50630000D02*
X24390000Y50210000D01*
X24390000Y48090000D02*
X24390000Y47670000D01*
X24390000Y45550000D02*
X24390000Y45130000D01*
X24390000Y43010000D02*
X24390000Y42590000D01*
X24390000Y40470000D02*
X24390000Y40050000D01*
X24390000Y37930000D02*
X24390000Y37510000D01*
X24390000Y35390000D02*
X24390000Y34970000D01*
X24390000Y32850000D02*
X24390000Y32430000D01*
X24390000Y30310000D02*
X24390000Y29890000D01*
X24390000Y27770000D02*
X24390000Y27350000D01*
X24390000Y25230000D02*
X24390000Y24810000D01*
X24390000Y22690000D02*
X24390000Y22270000D01*
X24390000Y20150000D02*
X24390000Y19730000D01*
X24420324Y67990000D02*
X23910000Y67990000D01*
X25000000Y68410000D02*
X27490000Y68410000D01*
X25000000Y17190000D02*
X28837939Y17190000D01*
X27490000Y68410000D02*
X28837940Y68410000D01*
X29762061Y68410000D02*
X30765000Y68410000D01*
X30765000Y68410000D02*
X39235000Y68410000D01*
X31100000Y68410000D02*
X31100000Y67494000D01*
X31100000Y65106000D02*
X31100000Y63890000D01*
X31100000Y63890000D02*
X31396090Y63890000D01*
X31400000Y17190000D02*
X29762061Y17190000D01*
X33520000Y17190000D02*
X33940000Y17190000D01*
X33753910Y63890000D02*
X36246090Y63890000D01*
X36060000Y17190000D02*
X36480000Y17190000D01*
X38603910Y63890000D02*
X38900000Y63890000D01*
X38900000Y68410000D02*
X38900000Y67494000D01*
X38900000Y65106000D02*
X38900000Y63890000D01*
X39235000Y68410000D02*
X40237939Y68410000D01*
X40237939Y17190000D02*
X38600000Y17190000D01*
X41162061Y68410000D02*
X42510000Y68410000D01*
X41162061Y17190000D02*
X45000000Y17190000D01*
X45000000Y68410000D02*
X42510000Y68410000D01*
X45610000Y65870000D02*
X45610000Y65450000D01*
X45610000Y63330000D02*
X45610000Y62910000D01*
X45610000Y60790000D02*
X45610000Y60370000D01*
X45610000Y58250000D02*
X45610000Y57830000D01*
X45610000Y55710000D02*
X45610000Y55290000D01*
X45610000Y53170000D02*
X45610000Y52750000D01*
X45610000Y50630000D02*
X45610000Y50210000D01*
X45610000Y48090000D02*
X45610000Y47670000D01*
X45610000Y45550000D02*
X45610000Y45130000D01*
X45610000Y43010000D02*
X45610000Y42590000D01*
X45610000Y40470000D02*
X45610000Y40050000D01*
X45610000Y37930000D02*
X45610000Y37510000D01*
X45610000Y35390000D02*
X45610000Y34970000D01*
X45610000Y32850000D02*
X45610000Y32430000D01*
X45610000Y30310000D02*
X45610000Y29890000D01*
X45610000Y27770000D02*
X45610000Y27350000D01*
X45610000Y25230000D02*
X45610000Y24810000D01*
X45610000Y22690000D02*
X45610000Y22270000D01*
X45610000Y20150000D02*
X45610000Y19730000D01*
X24420324Y67990000D02*
G75*
G02*
X25000000Y68410000I579692J-190051D01*
G01*
X25000000Y17190000D02*
G75*
G02*
X24420324Y17610063I1J610002D01*
G01*
X45000000Y68410000D02*
G75*
G02*
X45579676Y67989937I0J-610000D01*
G01*
X45579676Y17610063D02*
G75*
G02*
X45000000Y17190052I-579476J189737D01*
G01*
G04 #@! TO.C,C2*
X62453733Y58335000D02*
X62746267Y58335000D01*
X62453733Y57315000D02*
X62746267Y57315000D01*
G04 #@! TO.C,R1*
X65177500Y59067224D02*
X65177500Y58557776D01*
X66222500Y59067224D02*
X66222500Y58557776D01*
G04 #@! TO.C,C1*
X47390000Y63346267D02*
X47390000Y63053733D01*
X48410000Y63346267D02*
X48410000Y63053733D01*
G04 #@! TO.C,BT1*
X51980000Y67680000D02*
X51980000Y64920000D01*
X54630000Y67680000D02*
X51980000Y67680000D01*
X54630000Y67680000D02*
X54630000Y64920000D01*
X54630000Y64920000D02*
X51980000Y64920000D01*
X55900000Y67680000D02*
X57280000Y67680000D01*
X57280000Y67680000D02*
X57280000Y66300000D01*
G04 #@! TD*
M02*
