G04 #@! TF.GenerationSoftware,KiCad,Pcbnew,10.0.0*
G04 #@! TF.CreationDate,2026-04-28T17:12:55+05:30*
G04 #@! TF.ProjectId,pico-epaper-th,7069636f-2d65-4706-9170-65722d74682e,rev?*
G04 #@! TF.SameCoordinates,PX5fbfb80PY87b5360*
G04 #@! TF.FileFunction,Soldermask,Top*
G04 #@! TF.FilePolarity,Negative*
%FSLAX46Y46*%
G04 Gerber Fmt 4.6, Leading zero omitted, Abs format (unit mm)*
G04 Created by KiCad (PCBNEW 10.0.0) date 2026-04-28 17:12:55*
%MOMM*%
%LPD*%
G01*
G04 APERTURE LIST*
G04 Aperture macros list*
%AMRoundRect*
0 Rectangle with rounded corners*
0 $1 Rounding radius*
0 $2 $3 $4 $5 $6 $7 $8 $9 X,Y pos of 4 corners*
0 Add a 4 corners polygon primitive as box body*
4,1,4,$2,$3,$4,$5,$6,$7,$8,$9,$2,$3,0*
0 Add four circle primitives for the rounded corners*
1,1,$1+$1,$2,$3*
1,1,$1+$1,$4,$5*
1,1,$1+$1,$6,$7*
1,1,$1+$1,$8,$9*
0 Add four rect primitives between the rounded corners*
20,1,$1+$1,$2,$3,$4,$5,0*
20,1,$1+$1,$4,$5,$6,$7,0*
20,1,$1+$1,$6,$7,$8,$9,0*
20,1,$1+$1,$8,$9,$2,$3,0*%
%AMFreePoly0*
4,1,37,0.800000,0.796148,0.878414,0.796148,1.032228,0.765552,1.177117,0.705537,1.307515,0.618408,1.418408,0.507515,1.505537,0.377117,1.565552,0.232228,1.596148,0.078414,1.596148,-0.078414,1.565552,-0.232228,1.505537,-0.377117,1.418408,-0.507515,1.307515,-0.618408,1.177117,-0.705537,1.032228,-0.765552,0.878414,-0.796148,0.800000,-0.796148,0.800000,-0.800000,-1.400000,-0.800000,
-1.403843,-0.796157,-1.439018,-0.796157,-1.511114,-0.766294,-1.566294,-0.711114,-1.596157,-0.639018,-1.596157,-0.603843,-1.600000,-0.600000,-1.600000,0.600000,-1.596157,0.603843,-1.596157,0.639018,-1.566294,0.711114,-1.511114,0.766294,-1.439018,0.796157,-1.403843,0.796157,-1.400000,0.800000,0.800000,0.800000,0.800000,0.796148,0.800000,0.796148,$1*%
%AMFreePoly1*
4,1,37,1.403843,0.796157,1.439018,0.796157,1.511114,0.766294,1.566294,0.711114,1.596157,0.639018,1.596157,0.603843,1.600000,0.600000,1.600000,-0.600000,1.596157,-0.603843,1.596157,-0.639018,1.566294,-0.711114,1.511114,-0.766294,1.439018,-0.796157,1.403843,-0.796157,1.400000,-0.800000,-0.800000,-0.800000,-0.800000,-0.796148,-0.878414,-0.796148,-1.032228,-0.765552,-1.177117,-0.705537,
-1.307515,-0.618408,-1.418408,-0.507515,-1.505537,-0.377117,-1.565552,-0.232228,-1.596148,-0.078414,-1.596148,0.078414,-1.565552,0.232228,-1.505537,0.377117,-1.418408,0.507515,-1.307515,0.618408,-1.177117,0.705537,-1.032228,0.765552,-0.878414,0.796148,-0.800000,0.796148,-0.800000,0.800000,1.400000,0.800000,1.403843,0.796157,1.403843,0.796157,$1*%
%AMFreePoly2*
4,1,37,1.600000,0.796148,1.678414,0.796148,1.832228,0.765552,1.977117,0.705537,2.107515,0.618408,2.218408,0.507515,2.305537,0.377117,2.365552,0.232228,2.396148,0.078414,2.396148,-0.078414,2.365552,-0.232228,2.305537,-0.377117,2.218408,-0.507515,2.107515,-0.618408,1.977117,-0.705537,1.832228,-0.765552,1.678414,-0.796148,1.600000,-0.796148,1.600000,-0.800000,-0.600000,-0.800000,
-0.603843,-0.796157,-0.639018,-0.796157,-0.711114,-0.766294,-0.766294,-0.711114,-0.796157,-0.639018,-0.796157,-0.603843,-0.800000,-0.600000,-0.800000,0.600000,-0.796157,0.603843,-0.796157,0.639018,-0.766294,0.711114,-0.711114,0.766294,-0.639018,0.796157,-0.603843,0.796157,-0.600000,0.800000,1.600000,0.800000,1.600000,0.796148,1.600000,0.796148,$1*%
G04 Aperture macros list end*
%ADD10R,1.700000X1.700000*%
%ADD11C,1.700000*%
%ADD12C,4.400000*%
%ADD13RoundRect,0.237500X-0.300000X-0.237500X0.300000X-0.237500X0.300000X0.237500X-0.300000X0.237500X0*%
%ADD14RoundRect,0.237500X-0.237500X0.300000X-0.237500X-0.300000X0.237500X-0.300000X0.237500X0.300000X0*%
%ADD15RoundRect,0.150000X0.150000X-0.512500X0.150000X0.512500X-0.150000X0.512500X-0.150000X-0.512500X0*%
%ADD16RoundRect,0.200000X0.750000X0.200000X-0.750000X0.200000X-0.750000X-0.200000X0.750000X-0.200000X0*%
%ADD17C,2.200000*%
%ADD18C,1.850000*%
%ADD19FreePoly0,0.000000*%
%ADD20RoundRect,0.800000X-0.800000X-0.000010X0.800000X-0.000010X0.800000X0.000010X-0.800000X0.000010X0*%
%ADD21FreePoly1,0.000000*%
%ADD22RoundRect,0.800000X0.000010X-0.800000X0.000010X0.800000X-0.000010X0.800000X-0.000010X-0.800000X0*%
%ADD23FreePoly2,270.000000*%
%ADD24RoundRect,0.237500X-0.237500X0.250000X-0.237500X-0.250000X0.237500X-0.250000X0.237500X0.250000X0*%
G04 APERTURE END LIST*
D10*
G04 #@! TO.C,U3*
X6700000Y26070000D03*
D11*
X6700000Y28610000D03*
X6700000Y31150000D03*
X6700000Y33690000D03*
X6700000Y36230000D03*
X6700000Y38770000D03*
X6700000Y41310000D03*
X6700000Y43850000D03*
G04 #@! TD*
D12*
G04 #@! TO.C,REF\u002A\u002A*
X60000000Y5000000D03*
G04 #@! TD*
G04 #@! TO.C,REF\u002A\u002A*
X16700000Y21000000D03*
G04 #@! TD*
D13*
G04 #@! TO.C,C3*
X47937500Y56800000D03*
X49662500Y56800000D03*
G04 #@! TD*
D12*
G04 #@! TO.C,REF\u002A\u002A*
X16700000Y49000000D03*
G04 #@! TD*
D14*
G04 #@! TO.C,C4*
X49700000Y64062500D03*
X49700000Y62337500D03*
G04 #@! TD*
D12*
G04 #@! TO.C,REF\u002A\u002A*
X59700000Y49000000D03*
G04 #@! TD*
D15*
G04 #@! TO.C,U2*
X61650000Y59775000D03*
X62600000Y59775000D03*
X63550000Y59775000D03*
X63550000Y62050000D03*
X62600000Y62050000D03*
X61650000Y62050000D03*
G04 #@! TD*
D10*
G04 #@! TO.C,U1*
X54300000Y5420000D03*
D11*
X54300000Y7960000D03*
X54300000Y10500000D03*
X54300000Y13040000D03*
G04 #@! TD*
D12*
G04 #@! TO.C,REF\u002A\u002A*
X10000000Y65000000D03*
G04 #@! TD*
D16*
G04 #@! TO.C,Q1*
X56125000Y60476911D03*
X56125000Y62376911D03*
X53125000Y61426911D03*
G04 #@! TD*
D17*
G04 #@! TO.C,A1*
X32275000Y66800000D03*
D18*
X32575000Y63770000D03*
X37425000Y63770000D03*
D17*
X37725000Y66800000D03*
D19*
X25310000Y66930000D03*
D20*
X25310000Y64390000D03*
D21*
X25310000Y61850000D03*
D20*
X25310000Y59310000D03*
X25310000Y56770000D03*
X25310000Y54230000D03*
X25310000Y51690000D03*
D21*
X25310000Y49150000D03*
D20*
X25310000Y46610000D03*
X25310000Y44070000D03*
X25310000Y41530000D03*
X25310000Y38990000D03*
D21*
X25310000Y36450000D03*
D20*
X25310000Y33910000D03*
X25310000Y31370000D03*
X25310000Y28830000D03*
X25310000Y26290000D03*
D21*
X25310000Y23750000D03*
D20*
X25310000Y21210000D03*
X25310000Y18670000D03*
X44690000Y18670000D03*
X44690000Y21210000D03*
D19*
X44690000Y23750000D03*
D20*
X44690000Y26290000D03*
X44690000Y28830000D03*
X44690000Y31370000D03*
X44690000Y33910000D03*
D19*
X44690000Y36450000D03*
D20*
X44690000Y38990000D03*
X44690000Y41530000D03*
X44690000Y44070000D03*
X44690000Y46610000D03*
D19*
X44690000Y49150000D03*
D20*
X44690000Y51690000D03*
X44690000Y54230000D03*
X44690000Y56770000D03*
X44690000Y59310000D03*
D19*
X44690000Y61850000D03*
D20*
X44690000Y64390000D03*
X44690000Y66930000D03*
D22*
X32460000Y18100000D03*
D23*
X35000000Y18900000D03*
D22*
X37540000Y18100000D03*
G04 #@! TD*
D13*
G04 #@! TO.C,C2*
X61737500Y57825000D03*
X63462500Y57825000D03*
G04 #@! TD*
D24*
G04 #@! TO.C,R1*
X65700000Y59725000D03*
X65700000Y57900000D03*
G04 #@! TD*
D14*
G04 #@! TO.C,C1*
X47900000Y64062500D03*
X47900000Y62337500D03*
G04 #@! TD*
D12*
G04 #@! TO.C,REF\u002A\u002A*
X59700000Y21000000D03*
G04 #@! TD*
D10*
G04 #@! TO.C,BT1*
X55900000Y66300000D03*
D11*
X53360000Y66300000D03*
G04 #@! TD*
M02*
