G04 #@! TF.GenerationSoftware,KiCad,Pcbnew,10.0.0*
G04 #@! TF.CreationDate,2026-04-28T17:12:55+05:30*
G04 #@! TF.ProjectId,pico-epaper-th,7069636f-2d65-4706-9170-65722d74682e,rev?*
G04 #@! TF.SameCoordinates,PX5fbfb80PY87b5360*
G04 #@! TF.FileFunction,Legend,Bot*
G04 #@! TF.FilePolarity,Positive*
%FSLAX46Y46*%
G04 Gerber Fmt 4.6, Leading zero omitted, Abs format (unit mm)*
G04 Created by KiCad (PCBNEW 10.0.0) date 2026-04-28 17:12:55*
%MOMM*%
%LPD*%
G01*
G04 APERTURE LIST*
%ADD10C,0.300000*%
%ADD11C,0.000000*%
G04 APERTURE END LIST*
D10*
X66200828Y39859775D02*
X67700828Y39359775D01*
X67700828Y39359775D02*
X66200828Y38859775D01*
X67629400Y37788347D02*
X67700828Y37931204D01*
X67700828Y37931204D02*
X67700828Y38216918D01*
X67700828Y38216918D02*
X67629400Y38359776D01*
X67629400Y38359776D02*
X67486542Y38431204D01*
X67486542Y38431204D02*
X66915114Y38431204D01*
X66915114Y38431204D02*
X66772257Y38359776D01*
X66772257Y38359776D02*
X66700828Y38216918D01*
X66700828Y38216918D02*
X66700828Y37931204D01*
X66700828Y37931204D02*
X66772257Y37788347D01*
X66772257Y37788347D02*
X66915114Y37716918D01*
X66915114Y37716918D02*
X67057971Y37716918D01*
X67057971Y37716918D02*
X67200828Y38431204D01*
X67700828Y37074062D02*
X66700828Y37074062D01*
X66986542Y37074062D02*
X66843685Y37002633D01*
X66843685Y37002633D02*
X66772257Y36931204D01*
X66772257Y36931204D02*
X66700828Y36788347D01*
X66700828Y36788347D02*
X66700828Y36645490D01*
X66200828Y34716919D02*
X66200828Y34574062D01*
X66200828Y34574062D02*
X66272257Y34431205D01*
X66272257Y34431205D02*
X66343685Y34359776D01*
X66343685Y34359776D02*
X66486542Y34288348D01*
X66486542Y34288348D02*
X66772257Y34216919D01*
X66772257Y34216919D02*
X67129400Y34216919D01*
X67129400Y34216919D02*
X67415114Y34288348D01*
X67415114Y34288348D02*
X67557971Y34359776D01*
X67557971Y34359776D02*
X67629400Y34431205D01*
X67629400Y34431205D02*
X67700828Y34574062D01*
X67700828Y34574062D02*
X67700828Y34716919D01*
X67700828Y34716919D02*
X67629400Y34859776D01*
X67629400Y34859776D02*
X67557971Y34931205D01*
X67557971Y34931205D02*
X67415114Y35002634D01*
X67415114Y35002634D02*
X67129400Y35074062D01*
X67129400Y35074062D02*
X66772257Y35074062D01*
X66772257Y35074062D02*
X66486542Y35002634D01*
X66486542Y35002634D02*
X66343685Y34931205D01*
X66343685Y34931205D02*
X66272257Y34859776D01*
X66272257Y34859776D02*
X66200828Y34716919D01*
X67557971Y33574063D02*
X67629400Y33502634D01*
X67629400Y33502634D02*
X67700828Y33574063D01*
X67700828Y33574063D02*
X67629400Y33645491D01*
X67629400Y33645491D02*
X67557971Y33574063D01*
X67557971Y33574063D02*
X67700828Y33574063D01*
X67700828Y32074062D02*
X67700828Y32931205D01*
X67700828Y32502634D02*
X66200828Y32502634D01*
X66200828Y32502634D02*
X66415114Y32645491D01*
X66415114Y32645491D02*
X66557971Y32788348D01*
X66557971Y32788348D02*
X66629400Y32931205D01*
D11*
G04 #@! TO.C,G\u002A\u002A\u002A*
G36*
X31166267Y35263260D02*
G01*
X31166267Y34654633D01*
X30557641Y34654633D01*
X29949015Y34654633D01*
X29949015Y35263260D01*
X29949015Y35871886D01*
X30557641Y35871886D01*
X31166267Y35871886D01*
X31166267Y35263260D01*
G37*
G36*
X40092785Y35263260D02*
G01*
X40092785Y34654633D01*
X39484159Y34654633D01*
X38875532Y34654633D01*
X38875532Y35263260D01*
X38875532Y35871886D01*
X39484159Y35871886D01*
X40092785Y35871886D01*
X40092785Y35263260D01*
G37*
G36*
X34412274Y35669010D02*
G01*
X34412274Y35466135D01*
X34209398Y35466135D01*
X34006523Y35466135D01*
X34006523Y35669010D01*
X34006523Y35871886D01*
X34209398Y35871886D01*
X34412274Y35871886D01*
X34412274Y35669010D01*
G37*
G36*
X35629526Y34451758D02*
G01*
X35629526Y34248883D01*
X35426651Y34248883D01*
X35223775Y34248883D01*
X35223775Y34451758D01*
X35223775Y34654633D01*
X35426651Y34654633D01*
X35629526Y34654633D01*
X35629526Y34451758D01*
G37*
G36*
X35629526Y32423004D02*
G01*
X35629526Y32220129D01*
X35426651Y32220129D01*
X35223775Y32220129D01*
X35223775Y32423004D01*
X35223775Y32625879D01*
X35426651Y32625879D01*
X35629526Y32625879D01*
X35629526Y32423004D01*
G37*
G36*
X37455405Y32220129D02*
G01*
X37658280Y32220129D01*
X37658280Y31814378D01*
X37658280Y31408627D01*
X37455405Y31408627D01*
X37252529Y31408627D01*
X37252529Y31814378D01*
X37252529Y32220129D01*
X37455405Y32220129D01*
G37*
G36*
X37252529Y32423004D02*
G01*
X37252529Y32220129D01*
X37049654Y32220129D01*
X36846778Y32220129D01*
X36846778Y32423004D01*
X36846778Y32625879D01*
X37049654Y32625879D01*
X37252529Y32625879D01*
X37252529Y32423004D01*
G37*
G36*
X34412274Y29582748D02*
G01*
X34412274Y29379873D01*
X34209398Y29379873D01*
X34006523Y29379873D01*
X34006523Y29582748D01*
X34006523Y29785624D01*
X34209398Y29785624D01*
X34412274Y29785624D01*
X34412274Y29582748D01*
G37*
G36*
X36441028Y32017253D02*
G01*
X36441028Y31814378D01*
X36238152Y31814378D01*
X36035277Y31814378D01*
X36035277Y32017253D01*
X36035277Y32220129D01*
X36238152Y32220129D01*
X36441028Y32220129D01*
X36441028Y32017253D01*
G37*
G36*
X35426651Y29379873D02*
G01*
X35629526Y29379873D01*
X35629526Y29176998D01*
X35629526Y28974122D01*
X35426651Y28974122D01*
X35223775Y28974122D01*
X35223775Y29176998D01*
X35223775Y29379873D01*
X35426651Y29379873D01*
G37*
G36*
X36846778Y30191375D02*
G01*
X36643903Y30191375D01*
X36441028Y30191375D01*
X36441028Y29785624D01*
X36441028Y29379873D01*
X36238152Y29379873D01*
X36035277Y29379873D01*
X36035277Y29785624D01*
X36035277Y30191375D01*
X35629526Y30191375D01*
X35223775Y30191375D01*
X35223775Y29785624D01*
X35223775Y29379873D01*
X35020900Y29379873D01*
X34818024Y29379873D01*
X34818024Y30191375D01*
X34818024Y31002876D01*
X35020900Y31002876D01*
X35223775Y31002876D01*
X35223775Y30800001D01*
X35223775Y30597125D01*
X35426651Y30597125D01*
X35629526Y30597125D01*
X36035277Y30597125D01*
X36035277Y30394250D01*
X36035277Y30191375D01*
X36238152Y30191375D01*
X36441028Y30191375D01*
X36441028Y30394250D01*
X36441028Y30597125D01*
X36238152Y30597125D01*
X36035277Y30597125D01*
X35629526Y30597125D01*
X35629526Y30800001D01*
X35629526Y31002876D01*
X35426651Y31002876D01*
X35223775Y31002876D01*
X35223775Y31205752D01*
X35223775Y31408627D01*
X35426651Y31408627D01*
X35629526Y31408627D01*
X35629526Y31611502D01*
X35629526Y31814378D01*
X35832401Y31814378D01*
X36035277Y31814378D01*
X36035277Y31611502D01*
X36035277Y31408627D01*
X36238152Y31408627D01*
X36441028Y31408627D01*
X36441028Y31002876D01*
X36441028Y30597125D01*
X36643903Y30597125D01*
X36846778Y30597125D01*
X36846778Y30800001D01*
X36846778Y31002876D01*
X37252529Y31002876D01*
X37658280Y31002876D01*
X37658280Y30597125D01*
X37658280Y30191375D01*
X37455405Y30191375D01*
X37252529Y30191375D01*
X37252529Y30394250D01*
X37252529Y30597125D01*
X37049654Y30597125D01*
X36846778Y30597125D01*
X36846778Y30394250D01*
X36846778Y30191375D01*
G37*
G36*
X37252529Y29379873D02*
G01*
X37252529Y28974122D01*
X37049654Y28974122D01*
X36846778Y28974122D01*
X36846778Y29379873D01*
X36846778Y29785624D01*
X37049654Y29785624D01*
X37252529Y29785624D01*
X37252529Y29379873D01*
G37*
G36*
X36441028Y28771247D02*
G01*
X36441028Y28568371D01*
X36238152Y28568371D01*
X36035277Y28568371D01*
X36035277Y28771247D01*
X36035277Y28974122D01*
X36238152Y28974122D01*
X36441028Y28974122D01*
X36441028Y28771247D01*
G37*
G36*
X31977769Y27553994D02*
G01*
X31977769Y27351119D01*
X31774893Y27351119D01*
X31572018Y27351119D01*
X31572018Y27553994D01*
X31572018Y27756870D01*
X31774893Y27756870D01*
X31977769Y27756870D01*
X31977769Y27553994D01*
G37*
G36*
X40092785Y26336742D02*
G01*
X40092785Y25728116D01*
X39484159Y25728116D01*
X38875532Y25728116D01*
X38875532Y26336742D01*
X38875532Y26945368D01*
X39484159Y26945368D01*
X40092785Y26945368D01*
X40092785Y26336742D01*
G37*
G36*
X31977769Y33843132D02*
G01*
X30557641Y33843132D01*
X29137513Y33843132D01*
X29137513Y35263260D01*
X29137513Y36277637D01*
X29543264Y36277637D01*
X29543264Y35263260D01*
X29543264Y34248883D01*
X30557641Y34248883D01*
X31572018Y34248883D01*
X31572018Y35263260D01*
X31572018Y36277637D01*
X30557641Y36277637D01*
X29543264Y36277637D01*
X29137513Y36277637D01*
X29137513Y36683387D01*
X30557641Y36683387D01*
X31977769Y36683387D01*
X31977769Y35263260D01*
X31977769Y33843132D01*
G37*
G36*
X40904286Y33843132D02*
G01*
X39484159Y33843132D01*
X38064031Y33843132D01*
X38064031Y35263260D01*
X38064031Y36277637D01*
X38469782Y36277637D01*
X38469782Y35263260D01*
X38469782Y34248883D01*
X39484159Y34248883D01*
X40498536Y34248883D01*
X40498536Y35263260D01*
X40498536Y36277637D01*
X39484159Y36277637D01*
X38469782Y36277637D01*
X38064031Y36277637D01*
X38064031Y36683387D01*
X39484159Y36683387D01*
X40904286Y36683387D01*
X40904286Y35263260D01*
X40904286Y33843132D01*
G37*
G36*
X38469782Y29176998D02*
G01*
X38469782Y28974122D01*
X38266906Y28974122D01*
X38064031Y28974122D01*
X38064031Y29176998D01*
X38064031Y29379873D01*
X38266906Y29379873D01*
X38469782Y29379873D01*
X38469782Y29176998D01*
G37*
G36*
X40701411Y28568371D02*
G01*
X40904286Y28568371D01*
X40904286Y28365496D01*
X40904286Y28162621D01*
X40701411Y28162621D01*
X40498536Y28162621D01*
X40498536Y28365496D01*
X40498536Y28568371D01*
X40701411Y28568371D01*
G37*
G36*
X40092785Y28974122D02*
G01*
X40295660Y28974122D01*
X40498536Y28974122D01*
X40498536Y29176998D01*
X40498536Y29379873D01*
X40701411Y29379873D01*
X40904286Y29379873D01*
X40904286Y29176998D01*
X40904286Y28974122D01*
X40701411Y28974122D01*
X40498536Y28974122D01*
X40498536Y28771247D01*
X40498536Y28568371D01*
X40295660Y28568371D01*
X40092785Y28568371D01*
X40092785Y28771247D01*
X40092785Y28974122D01*
X39889909Y28974122D01*
X39687034Y28974122D01*
X39687034Y28771247D01*
X39687034Y28568371D01*
X39484159Y28568371D01*
X39281283Y28568371D01*
X39281283Y28771247D01*
X39281283Y28974122D01*
X39078408Y28974122D01*
X38875532Y28974122D01*
X38875532Y29176998D01*
X38875532Y29379873D01*
X39281283Y29379873D01*
X39281283Y29176998D01*
X39281283Y28974122D01*
X39484159Y28974122D01*
X39687034Y28974122D01*
X39687034Y29176998D01*
X39687034Y29379873D01*
X39484159Y29379873D01*
X39281283Y29379873D01*
X38875532Y29379873D01*
X38672657Y29379873D01*
X38469782Y29379873D01*
X38469782Y29582748D01*
X38469782Y29785624D01*
X38064031Y29785624D01*
X37658280Y29785624D01*
X37658280Y29988499D01*
X37658280Y30191375D01*
X38064031Y30191375D01*
X38469782Y30191375D01*
X38469782Y30394250D01*
X38469782Y30597125D01*
X38672657Y30597125D01*
X38875532Y30597125D01*
X38875532Y30191375D01*
X38875532Y29785624D01*
X39078408Y29785624D01*
X39281283Y29785624D01*
X39281283Y29988499D01*
X39281283Y30191375D01*
X39889909Y30191375D01*
X40498536Y30191375D01*
X40498536Y29988499D01*
X40498536Y29785624D01*
X40295660Y29785624D01*
X40092785Y29785624D01*
X40092785Y29379873D01*
X40092785Y29176998D01*
X40092785Y28974122D01*
G37*
G36*
X38266906Y31002876D02*
G01*
X38469782Y31002876D01*
X38469782Y30800001D01*
X38469782Y30597125D01*
X38266906Y30597125D01*
X38064031Y30597125D01*
X38064031Y30800001D01*
X38064031Y31002876D01*
X38266906Y31002876D01*
G37*
G36*
X38064031Y31205752D02*
G01*
X38064031Y31002876D01*
X37861155Y31002876D01*
X37658280Y31002876D01*
X37658280Y31205752D01*
X37658280Y31408627D01*
X37861155Y31408627D01*
X38064031Y31408627D01*
X38064031Y31205752D01*
G37*
G36*
X31572018Y25119490D02*
G01*
X31572018Y24916614D01*
X31166267Y24916614D01*
X30760516Y24916614D01*
X30760516Y25119490D01*
X30760516Y25322365D01*
X31166267Y25322365D01*
X31572018Y25322365D01*
X31572018Y25119490D01*
G37*
G36*
X36035277Y25119490D02*
G01*
X36035277Y24916614D01*
X35832401Y24916614D01*
X35629526Y24916614D01*
X35629526Y25119490D01*
X35629526Y25322365D01*
X35832401Y25322365D01*
X36035277Y25322365D01*
X36035277Y25119490D01*
G37*
G36*
X29746139Y25728116D02*
G01*
X29949015Y25728116D01*
X29949015Y25322365D01*
X29949015Y24916614D01*
X29543264Y24916614D01*
X29137513Y24916614D01*
X29137513Y25119490D01*
X29137513Y25322365D01*
X29340389Y25322365D01*
X29543264Y25322365D01*
X29543264Y25525240D01*
X29543264Y25728116D01*
X29746139Y25728116D01*
G37*
G36*
X32789270Y30800001D02*
G01*
X32789270Y30191375D01*
X32992146Y30191375D01*
X33195021Y30191375D01*
X33195021Y30394250D01*
X33195021Y30597125D01*
X33397897Y30597125D01*
X33600772Y30597125D01*
X33600772Y30800001D01*
X33600772Y31002876D01*
X34006523Y31002876D01*
X34412274Y31002876D01*
X34412274Y30800001D01*
X34412274Y30597125D01*
X34209398Y30597125D01*
X34006523Y30597125D01*
X34006523Y30191375D01*
X34006523Y29785624D01*
X33195021Y29785624D01*
X32383520Y29785624D01*
X32383520Y29582748D01*
X32383520Y29379873D01*
X32586395Y29379873D01*
X32789270Y29379873D01*
X32789270Y29176998D01*
X32789270Y28974122D01*
X33803647Y28974122D01*
X34818024Y28974122D01*
X34818024Y28771247D01*
X34818024Y28568371D01*
X34615149Y28568371D01*
X34412274Y28568371D01*
X34412274Y27959745D01*
X34412274Y27756870D01*
X34412274Y27351119D01*
X34615149Y27351119D01*
X34818024Y27351119D01*
X34818024Y27553994D01*
X34818024Y27756870D01*
X35020900Y27756870D01*
X35223775Y27756870D01*
X35223775Y27553994D01*
X35223775Y27351119D01*
X35426651Y27351119D01*
X35629526Y27351119D01*
X36035277Y27351119D01*
X36035277Y27148244D01*
X36035277Y26945368D01*
X36643903Y26945368D01*
X37252529Y26945368D01*
X37252529Y27148244D01*
X37252529Y27351119D01*
X36643903Y27351119D01*
X36035277Y27351119D01*
X35629526Y27351119D01*
X35629526Y27553994D01*
X35629526Y27756870D01*
X35426651Y27756870D01*
X35223775Y27756870D01*
X35223775Y27959745D01*
X35223775Y28162621D01*
X35426651Y28162621D01*
X35629526Y28162621D01*
X35629526Y28365496D01*
X35629526Y28568371D01*
X35832401Y28568371D01*
X36035277Y28568371D01*
X36035277Y28365496D01*
X36035277Y28162621D01*
X36238152Y28162621D01*
X36441028Y28162621D01*
X36441028Y27959745D01*
X36441028Y27756870D01*
X36643903Y27756870D01*
X36846778Y27756870D01*
X36846778Y28162621D01*
X36846778Y28568371D01*
X37252529Y28568371D01*
X37658280Y28568371D01*
X37658280Y28771247D01*
X37658280Y28974122D01*
X37861155Y28974122D01*
X38064031Y28974122D01*
X38064031Y28771247D01*
X38064031Y28568371D01*
X38266906Y28568371D01*
X38469782Y28568371D01*
X38469782Y28365496D01*
X38469782Y28162621D01*
X38064031Y28162621D01*
X37658280Y28162621D01*
X37658280Y27351119D01*
X37658280Y27148244D01*
X37658280Y26539617D01*
X37455405Y26539617D01*
X37252529Y26539617D01*
X37252529Y26336742D01*
X37252529Y26133867D01*
X37455405Y26133867D01*
X37658280Y26133867D01*
X37658280Y25525240D01*
X37658280Y24916614D01*
X37455405Y24916614D01*
X37252529Y24916614D01*
X37252529Y25119490D01*
X37252529Y25322365D01*
X36643903Y25322365D01*
X36035277Y25322365D01*
X36035277Y25525240D01*
X36035277Y25728116D01*
X36238152Y25728116D01*
X36441028Y25728116D01*
X36441028Y25930991D01*
X36441028Y26133867D01*
X36238152Y26133867D01*
X36035277Y26133867D01*
X36035277Y26539617D01*
X36035277Y26945368D01*
X35629526Y26945368D01*
X35223775Y26945368D01*
X35223775Y26539617D01*
X35223775Y26133867D01*
X35020900Y26133867D01*
X34818024Y26133867D01*
X34818024Y26539617D01*
X34818024Y26945368D01*
X34615149Y26945368D01*
X34412274Y26945368D01*
X34412274Y27148244D01*
X34412274Y27351119D01*
X34209398Y27351119D01*
X34006523Y27351119D01*
X34006523Y26945368D01*
X34006523Y26539617D01*
X34209398Y26539617D01*
X34412274Y26539617D01*
X34412274Y26336742D01*
X34412274Y26133867D01*
X34006523Y26133867D01*
X33600772Y26133867D01*
X33600772Y25930991D01*
X33600772Y25728116D01*
X33195021Y25728116D01*
X32789270Y25728116D01*
X32789270Y25525240D01*
X32789270Y25322365D01*
X32992146Y25322365D01*
X33195021Y25322365D01*
X33195021Y25119490D01*
X33195021Y24916614D01*
X32789270Y24916614D01*
X32383520Y24916614D01*
X32383520Y25525240D01*
X32383520Y26133867D01*
X32789270Y26133867D01*
X33195021Y26133867D01*
X33195021Y26336742D01*
X33195021Y26539617D01*
X33397897Y26539617D01*
X33600772Y26539617D01*
X33600772Y26742493D01*
X33600772Y26945368D01*
X33397897Y26945368D01*
X33195021Y26945368D01*
X33195021Y27148244D01*
X33195021Y27351119D01*
X32992146Y27351119D01*
X32789270Y27351119D01*
X32789270Y26945368D01*
X32789270Y26539617D01*
X32180644Y26539617D01*
X31572018Y26539617D01*
X31572018Y26133867D01*
X31572018Y25728116D01*
X30963392Y25728116D01*
X30354766Y25728116D01*
X30354766Y25930991D01*
X30354766Y26133867D01*
X29949015Y26133867D01*
X29543264Y26133867D01*
X29543264Y25930991D01*
X29543264Y25728116D01*
X29340389Y25728116D01*
X29137513Y25728116D01*
X29137513Y26336742D01*
X29137513Y26945368D01*
X29340389Y26945368D01*
X29543264Y26945368D01*
X29543264Y27148244D01*
X29543264Y27351119D01*
X29340389Y27351119D01*
X29137513Y27351119D01*
X29137513Y27756870D01*
X29949015Y27756870D01*
X29949015Y27148244D01*
X29949015Y26539617D01*
X30151890Y26539617D01*
X30354766Y26539617D01*
X30354766Y26336742D01*
X30354766Y26133867D01*
X30557641Y26133867D01*
X30760516Y26133867D01*
X30760516Y26539617D01*
X30760516Y26945368D01*
X30557641Y26945368D01*
X30354766Y26945368D01*
X30354766Y27351119D01*
X30354766Y27756870D01*
X30151890Y27756870D01*
X29949015Y27756870D01*
X29137513Y27756870D01*
X29137513Y28162621D01*
X29746139Y28162621D01*
X30354766Y28162621D01*
X30354766Y27959745D01*
X30354766Y27756870D01*
X30557641Y27756870D01*
X30760516Y27756870D01*
X30760516Y28162621D01*
X31166267Y28162621D01*
X31166267Y27553994D01*
X31166267Y26945368D01*
X31774893Y26945368D01*
X32383520Y26945368D01*
X32383520Y27553994D01*
X32383520Y28162621D01*
X31774893Y28162621D01*
X31166267Y28162621D01*
X30760516Y28162621D01*
X30760516Y28568371D01*
X30557641Y28568371D01*
X30354766Y28568371D01*
X30354766Y28771247D01*
X30354766Y28974122D01*
X30557641Y28974122D01*
X30760516Y28974122D01*
X30760516Y29176998D01*
X30760516Y29379873D01*
X30963392Y29379873D01*
X31166267Y29379873D01*
X31166267Y28974122D01*
X31166267Y28568371D01*
X31369143Y28568371D01*
X31572018Y28568371D01*
X31572018Y28771247D01*
X31572018Y28974122D01*
X31774893Y28974122D01*
X31977769Y28974122D01*
X31977769Y28771247D01*
X31977769Y28568371D01*
X32180644Y28568371D01*
X32383520Y28568371D01*
X32789270Y28568371D01*
X32789270Y28162621D01*
X32789270Y27756870D01*
X32992146Y27756870D01*
X33195021Y27756870D01*
X33195021Y27553994D01*
X33195021Y27351119D01*
X33600772Y27351119D01*
X34006523Y27351119D01*
X34006523Y27553994D01*
X34006523Y27756870D01*
X33803647Y27756870D01*
X33600772Y27756870D01*
X33600772Y28162621D01*
X33600772Y28568371D01*
X33195021Y28568371D01*
X32789270Y28568371D01*
X32383520Y28568371D01*
X32383520Y28771247D01*
X32383520Y28974122D01*
X32180644Y28974122D01*
X31977769Y28974122D01*
X31977769Y29176998D01*
X31977769Y29379873D01*
X31774893Y29379873D01*
X31572018Y29379873D01*
X31572018Y29988499D01*
X31572018Y30597125D01*
X31166267Y30597125D01*
X30760516Y30597125D01*
X30760516Y29988499D01*
X30760516Y29582748D01*
X30760516Y29379873D01*
X30354766Y29379873D01*
X29949015Y29379873D01*
X29949015Y28974122D01*
X29949015Y28568371D01*
X29746139Y28568371D01*
X29543264Y28568371D01*
X29543264Y28771247D01*
X29543264Y28974122D01*
X29340389Y28974122D01*
X29137513Y28974122D01*
X29137513Y29582748D01*
X29137513Y29785624D01*
X29543264Y29785624D01*
X29543264Y29582748D01*
X29543264Y29379873D01*
X29746139Y29379873D01*
X29949015Y29379873D01*
X29949015Y29582748D01*
X29949015Y29785624D01*
X29746139Y29785624D01*
X29543264Y29785624D01*
X29137513Y29785624D01*
X29137513Y30191375D01*
X29340389Y30191375D01*
X29543264Y30191375D01*
X29543264Y30394250D01*
X29543264Y30597125D01*
X29340389Y30597125D01*
X29137513Y30597125D01*
X29137513Y31205752D01*
X29137513Y31814378D01*
X29340389Y31814378D01*
X29543264Y31814378D01*
X29543264Y32017253D01*
X29543264Y32220129D01*
X29340389Y32220129D01*
X29137513Y32220129D01*
X29137513Y32625879D01*
X29137513Y33031630D01*
X29340389Y33031630D01*
X29543264Y33031630D01*
X29543264Y32828755D01*
X29543264Y32625879D01*
X29949015Y32625879D01*
X30354766Y32625879D01*
X30354766Y32828755D01*
X30354766Y33031630D01*
X30557641Y33031630D01*
X30760516Y33031630D01*
X30760516Y32828755D01*
X30760516Y32625879D01*
X30557641Y32625879D01*
X30354766Y32625879D01*
X30354766Y32423004D01*
X30354766Y32220129D01*
X30151890Y32220129D01*
X29949015Y32220129D01*
X29949015Y31814378D01*
X29949015Y31408627D01*
X29746139Y31408627D01*
X29543264Y31408627D01*
X29543264Y31205752D01*
X29543264Y31002876D01*
X29746139Y31002876D01*
X29949015Y31002876D01*
X29949015Y30394250D01*
X29949015Y29785624D01*
X30151890Y29785624D01*
X30354766Y29785624D01*
X30354766Y30800001D01*
X30354766Y31814378D01*
X30557641Y31814378D01*
X30760516Y31814378D01*
X30760516Y31408627D01*
X30760516Y31002876D01*
X31166267Y31002876D01*
X31572018Y31002876D01*
X31572018Y31408627D01*
X31977769Y31408627D01*
X31977769Y31002876D01*
X31977769Y30597125D01*
X32180644Y30597125D01*
X32383520Y30597125D01*
X32383520Y31002876D01*
X32383520Y31408627D01*
X32180644Y31408627D01*
X31977769Y31408627D01*
X31572018Y31408627D01*
X31572018Y31814378D01*
X31369143Y31814378D01*
X31166267Y31814378D01*
X31166267Y32220129D01*
X31572018Y32220129D01*
X31572018Y32017253D01*
X31572018Y31814378D01*
X31774893Y31814378D01*
X31977769Y31814378D01*
X31977769Y32017253D01*
X31977769Y32220129D01*
X31774893Y32220129D01*
X31572018Y32220129D01*
X31166267Y32220129D01*
X31166267Y32625879D01*
X31369143Y32625879D01*
X31572018Y32625879D01*
X31572018Y33031630D01*
X31977769Y33031630D01*
X31977769Y32828755D01*
X31977769Y32625879D01*
X32180644Y32625879D01*
X32383520Y32625879D01*
X32383520Y32220129D01*
X32383520Y32017253D01*
X32383520Y31814378D01*
X32586395Y31814378D01*
X32789270Y31814378D01*
X32789270Y32017253D01*
X32789270Y32220129D01*
X32992146Y32220129D01*
X33195021Y32220129D01*
X33195021Y32423004D01*
X33195021Y32625879D01*
X33397897Y32625879D01*
X33600772Y32625879D01*
X33600772Y33031630D01*
X33600772Y33437381D01*
X33397897Y33437381D01*
X33195021Y33437381D01*
X33195021Y33234506D01*
X33195021Y33031630D01*
X32992146Y33031630D01*
X32789270Y33031630D01*
X32789270Y32828755D01*
X32789270Y32625879D01*
X32586395Y32625879D01*
X32383520Y32625879D01*
X32383520Y32828755D01*
X32383520Y33031630D01*
X32180644Y33031630D01*
X31977769Y33031630D01*
X31572018Y33031630D01*
X31572018Y33437381D01*
X31977769Y33437381D01*
X32383520Y33437381D01*
X32383520Y33843132D01*
X32383520Y34248883D01*
X32586395Y34248883D01*
X32789270Y34248883D01*
X32789270Y33843132D01*
X32789270Y33437381D01*
X32992146Y33437381D01*
X33195021Y33437381D01*
X33195021Y33843132D01*
X33195021Y34248883D01*
X33397897Y34248883D01*
X33600772Y34248883D01*
X33600772Y34046007D01*
X33600772Y33843132D01*
X33803647Y33843132D01*
X34006523Y33843132D01*
X34006523Y34046007D01*
X34006523Y34248883D01*
X34209398Y34248883D01*
X34412274Y34248883D01*
X34412274Y34046007D01*
X34412274Y33843132D01*
X34615149Y33843132D01*
X34818024Y33843132D01*
X34818024Y34046007D01*
X34818024Y34248883D01*
X35020900Y34248883D01*
X35223775Y34248883D01*
X35223775Y34046007D01*
X35223775Y33843132D01*
X35426651Y33843132D01*
X35629526Y33843132D01*
X35629526Y34046007D01*
X35629526Y34248883D01*
X35832401Y34248883D01*
X36035277Y34248883D01*
X36035277Y33843132D01*
X36035277Y33437381D01*
X36238152Y33437381D01*
X36441028Y33437381D01*
X36441028Y33843132D01*
X36441028Y34248883D01*
X36643903Y34248883D01*
X36846778Y34248883D01*
X36846778Y34046007D01*
X36846778Y33843132D01*
X37049654Y33843132D01*
X37252529Y33843132D01*
X37252529Y34046007D01*
X37252529Y34248883D01*
X37455405Y34248883D01*
X37658280Y34248883D01*
X37658280Y33843132D01*
X37658280Y33437381D01*
X38469782Y33437381D01*
X39281283Y33437381D01*
X39281283Y33234506D01*
X39281283Y33031630D01*
X39484159Y33031630D01*
X39687034Y33031630D01*
X39687034Y33234506D01*
X39687034Y33437381D01*
X40295660Y33437381D01*
X40904286Y33437381D01*
X40904286Y33031630D01*
X40904286Y32625879D01*
X40701411Y32625879D01*
X40498536Y32625879D01*
X40498536Y32828755D01*
X40498536Y33031630D01*
X40295660Y33031630D01*
X40092785Y33031630D01*
X40092785Y32828755D01*
X40092785Y32625879D01*
X39889909Y32625879D01*
X39687034Y32625879D01*
X39687034Y32220129D01*
X39687034Y31814378D01*
X39889909Y31814378D01*
X40092785Y31814378D01*
X40092785Y32017253D01*
X40092785Y32220129D01*
X40498536Y32220129D01*
X40904286Y32220129D01*
X40904286Y32017253D01*
X40904286Y31814378D01*
X40701411Y31814378D01*
X40498536Y31814378D01*
X40498536Y31611502D01*
X40498536Y31408627D01*
X40295660Y31408627D01*
X40092785Y31408627D01*
X40092785Y31205752D01*
X40092785Y31002876D01*
X39889909Y31002876D01*
X39687034Y31002876D01*
X39687034Y30800001D01*
X39687034Y30597125D01*
X39484159Y30597125D01*
X39281283Y30597125D01*
X39281283Y30800001D01*
X39281283Y31002876D01*
X39078408Y31002876D01*
X38875532Y31002876D01*
X38875532Y31205752D01*
X39281283Y31205752D01*
X39281283Y31002876D01*
X39484159Y31002876D01*
X39687034Y31002876D01*
X39687034Y31205752D01*
X39687034Y31408627D01*
X39484159Y31408627D01*
X39281283Y31408627D01*
X39281283Y31205752D01*
X38875532Y31205752D01*
X38875532Y31408627D01*
X39078408Y31408627D01*
X39281283Y31408627D01*
X39281283Y31814378D01*
X39281283Y32220129D01*
X39078408Y32220129D01*
X38875532Y32220129D01*
X38875532Y32423004D01*
X38875532Y32625879D01*
X39078408Y32625879D01*
X39281283Y32625879D01*
X39281283Y32828755D01*
X39281283Y33031630D01*
X39078408Y33031630D01*
X38875532Y33031630D01*
X38875532Y32828755D01*
X38875532Y32625879D01*
X38672657Y32625879D01*
X38469782Y32625879D01*
X38469782Y32828755D01*
X38469782Y33031630D01*
X38266906Y33031630D01*
X38064031Y33031630D01*
X38064031Y32828755D01*
X38064031Y32625879D01*
X38266906Y32625879D01*
X38469782Y32625879D01*
X38469782Y32423004D01*
X38469782Y32220129D01*
X38064031Y32220129D01*
X37658280Y32220129D01*
X37658280Y32625879D01*
X37658280Y33031630D01*
X37455405Y33031630D01*
X37252529Y33031630D01*
X37252529Y33234506D01*
X37252529Y33437381D01*
X37049654Y33437381D01*
X36846778Y33437381D01*
X36846778Y33031630D01*
X36846778Y32625879D01*
X36441028Y32625879D01*
X36035277Y32625879D01*
X36035277Y33031630D01*
X36035277Y33437381D01*
X35629526Y33437381D01*
X35223775Y33437381D01*
X35223775Y33031630D01*
X35223775Y32625879D01*
X35020900Y32625879D01*
X34818024Y32625879D01*
X34818024Y33031630D01*
X34818024Y33437381D01*
X34412274Y33437381D01*
X34006523Y33437381D01*
X34006523Y33234506D01*
X34006523Y33031630D01*
X34209398Y33031630D01*
X34412274Y33031630D01*
X34412274Y32828755D01*
X34412274Y32625879D01*
X34209398Y32625879D01*
X34006523Y32625879D01*
X34006523Y32423004D01*
X34006523Y32220129D01*
X34412274Y32220129D01*
X34818024Y32220129D01*
X34818024Y31814378D01*
X34818024Y31408627D01*
X34209398Y31408627D01*
X33600772Y31408627D01*
X33600772Y31611502D01*
X33600772Y31814378D01*
X33397897Y31814378D01*
X33195021Y31814378D01*
X33195021Y31611502D01*
X33195021Y31408627D01*
X32992146Y31408627D01*
X32789270Y31408627D01*
X32789270Y31002876D01*
X32789270Y30800001D01*
G37*
G36*
X33803647Y25728116D02*
G01*
X34006523Y25728116D01*
X34006523Y25525240D01*
X34006523Y25322365D01*
X34209398Y25322365D01*
X34412274Y25322365D01*
X34412274Y25525240D01*
X34412274Y25728116D01*
X34615149Y25728116D01*
X34818024Y25728116D01*
X34818024Y25525240D01*
X34818024Y25322365D01*
X34615149Y25322365D01*
X34412274Y25322365D01*
X34412274Y25119490D01*
X34412274Y24916614D01*
X34006523Y24916614D01*
X33600772Y24916614D01*
X33600772Y25322365D01*
X33600772Y25728116D01*
X33803647Y25728116D01*
G37*
G36*
X31774893Y25728116D02*
G01*
X31977769Y25728116D01*
X31977769Y25525240D01*
X31977769Y25322365D01*
X31774893Y25322365D01*
X31572018Y25322365D01*
X31572018Y25525240D01*
X31572018Y25728116D01*
X31774893Y25728116D01*
G37*
G36*
X35426651Y26133867D02*
G01*
X35629526Y26133867D01*
X35629526Y25930991D01*
X35629526Y25728116D01*
X35426651Y25728116D01*
X35223775Y25728116D01*
X35223775Y25930991D01*
X35223775Y26133867D01*
X35426651Y26133867D01*
G37*
G36*
X40295660Y31002876D02*
G01*
X40498536Y31002876D01*
X40498536Y30800001D01*
X40498536Y30597125D01*
X40295660Y30597125D01*
X40092785Y30597125D01*
X40092785Y30800001D01*
X40092785Y31002876D01*
X40295660Y31002876D01*
G37*
G36*
X38875532Y31814378D02*
G01*
X38875532Y31408627D01*
X38469782Y31408627D01*
X38064031Y31408627D01*
X38064031Y31611502D01*
X38064031Y31814378D01*
X38266906Y31814378D01*
X38469782Y31814378D01*
X38469782Y32017253D01*
X38469782Y32220129D01*
X38672657Y32220129D01*
X38875532Y32220129D01*
X38875532Y31814378D01*
G37*
G36*
X30354766Y33234506D02*
G01*
X30354766Y33031630D01*
X30151890Y33031630D01*
X29949015Y33031630D01*
X29949015Y33234506D01*
X29949015Y33437381D01*
X30151890Y33437381D01*
X30354766Y33437381D01*
X30354766Y33234506D01*
G37*
G36*
X37049654Y34654633D02*
G01*
X37252529Y34654633D01*
X37252529Y34451758D01*
X37252529Y34248883D01*
X37049654Y34248883D01*
X36846778Y34248883D01*
X36846778Y34451758D01*
X36846778Y34654633D01*
X37049654Y34654633D01*
G37*
G36*
X33195021Y36277637D02*
G01*
X33195021Y35871886D01*
X33397897Y35871886D01*
X33600772Y35871886D01*
X33600772Y36074761D01*
X33600772Y36277637D01*
X33803647Y36277637D01*
X34006523Y36277637D01*
X34006523Y36074761D01*
X34006523Y35871886D01*
X33803647Y35871886D01*
X33600772Y35871886D01*
X33600772Y35466135D01*
X33600772Y35060384D01*
X33803647Y35060384D01*
X34006523Y35060384D01*
X34006523Y34654633D01*
X34006523Y34248883D01*
X33803647Y34248883D01*
X33600772Y34248883D01*
X33600772Y34451758D01*
X33600772Y34654633D01*
X33397897Y34654633D01*
X33195021Y34654633D01*
X33195021Y34451758D01*
X33195021Y34248883D01*
X32992146Y34248883D01*
X32789270Y34248883D01*
X32789270Y34451758D01*
X32789270Y34654633D01*
X32586395Y34654633D01*
X32383520Y34654633D01*
X32383520Y34857509D01*
X32383520Y35060384D01*
X32789270Y35060384D01*
X33195021Y35060384D01*
X33195021Y35263260D01*
X33195021Y35466135D01*
X32992146Y35466135D01*
X32789270Y35466135D01*
X32789270Y35669010D01*
X32789270Y35871886D01*
X32586395Y35871886D01*
X32383520Y35871886D01*
X32383520Y36074761D01*
X32383520Y36277637D01*
X32586395Y36277637D01*
X32789270Y36277637D01*
X32789270Y36480512D01*
X32789270Y36683387D01*
X32992146Y36683387D01*
X33195021Y36683387D01*
X33195021Y36277637D01*
G37*
G36*
X36846778Y35871886D02*
G01*
X37252529Y35871886D01*
X37658280Y35871886D01*
X37658280Y35669010D01*
X37658280Y35466135D01*
X37455405Y35466135D01*
X37252529Y35466135D01*
X37252529Y35263260D01*
X37252529Y35060384D01*
X37049654Y35060384D01*
X36846778Y35060384D01*
X36846778Y34857509D01*
X36846778Y34654633D01*
X36643903Y34654633D01*
X36441028Y34654633D01*
X36441028Y34857509D01*
X36441028Y35060384D01*
X36238152Y35060384D01*
X36035277Y35060384D01*
X36035277Y35263260D01*
X36035277Y35466135D01*
X35832401Y35466135D01*
X35629526Y35466135D01*
X35629526Y35263260D01*
X35629526Y35060384D01*
X35426651Y35060384D01*
X35223775Y35060384D01*
X35223775Y34857509D01*
X35223775Y34654633D01*
X35020900Y34654633D01*
X34818024Y34654633D01*
X34818024Y34451758D01*
X34818024Y34248883D01*
X34615149Y34248883D01*
X34412274Y34248883D01*
X34412274Y34654633D01*
X34412274Y35060384D01*
X34615149Y35060384D01*
X34818024Y35060384D01*
X34818024Y35466135D01*
X34818024Y35871886D01*
X34615149Y35871886D01*
X34412274Y35871886D01*
X34412274Y36074761D01*
X34412274Y36277637D01*
X34209398Y36277637D01*
X34006523Y36277637D01*
X34006523Y36480512D01*
X34006523Y36683387D01*
X34209398Y36683387D01*
X34412274Y36683387D01*
X34412274Y36480512D01*
X34412274Y36277637D01*
X34615149Y36277637D01*
X34818024Y36277637D01*
X35223775Y36277637D01*
X35223775Y36074761D01*
X35223775Y35871886D01*
X35426651Y35871886D01*
X35629526Y35871886D01*
X36035277Y35871886D01*
X36035277Y35669010D01*
X36035277Y35466135D01*
X36238152Y35466135D01*
X36441028Y35466135D01*
X36441028Y35669010D01*
X36441028Y35871886D01*
X36238152Y35871886D01*
X36035277Y35871886D01*
X35629526Y35871886D01*
X35629526Y36074761D01*
X35629526Y36277637D01*
X35426651Y36277637D01*
X35223775Y36277637D01*
X34818024Y36277637D01*
X34818024Y36480512D01*
X34818024Y36683387D01*
X35426651Y36683387D01*
X36035277Y36683387D01*
X36035277Y36480512D01*
X36035277Y36277637D01*
X36441028Y36277637D01*
X36846778Y36277637D01*
X36846778Y36480512D01*
X36846778Y36683387D01*
X37049654Y36683387D01*
X37252529Y36683387D01*
X37252529Y36480512D01*
X37252529Y36277637D01*
X37049654Y36277637D01*
X36846778Y36277637D01*
X36846778Y36074761D01*
X36846778Y35871886D01*
G37*
G36*
X40904286Y24916614D02*
G01*
X39484159Y24916614D01*
X38064031Y24916614D01*
X38064031Y26336742D01*
X38064031Y27351119D01*
X38469782Y27351119D01*
X38469782Y26336742D01*
X38469782Y25322365D01*
X39484159Y25322365D01*
X40498536Y25322365D01*
X40498536Y26336742D01*
X40498536Y27351119D01*
X39484159Y27351119D01*
X38469782Y27351119D01*
X38064031Y27351119D01*
X38064031Y27756870D01*
X39484159Y27756870D01*
X40904286Y27756870D01*
X40904286Y26336742D01*
X40904286Y24916614D01*
G37*
G36*
X24044994Y40766576D02*
G01*
X24045009Y40671816D01*
X24045124Y40514521D01*
X24045374Y40378687D01*
X24045787Y40262890D01*
X24046388Y40165703D01*
X24046459Y40158781D01*
X24047203Y40085702D01*
X24048259Y40021459D01*
X24049581Y39971549D01*
X24051195Y39934548D01*
X24053129Y39909028D01*
X24055407Y39893564D01*
X24058056Y39886731D01*
X24061101Y39887103D01*
X24067451Y39895728D01*
X24086143Y39922962D01*
X24115623Y39966743D01*
X24154687Y40025253D01*
X24202125Y40096675D01*
X24256733Y40179191D01*
X24317304Y40270984D01*
X24382631Y40370237D01*
X24451507Y40475133D01*
X24825804Y41045840D01*
X24825804Y41258901D01*
X24825804Y41471962D01*
X25039598Y41471962D01*
X25087002Y41471850D01*
X25155343Y41470997D01*
X25204789Y41469115D01*
X25238392Y41465981D01*
X25259209Y41461371D01*
X25270292Y41455061D01*
X25271905Y41453224D01*
X25278087Y41439573D01*
X25282452Y41414990D01*
X25285255Y41376298D01*
X25286750Y41320316D01*
X25287192Y41243867D01*
X25287192Y41049573D01*
X25409661Y40861489D01*
X25421795Y40842872D01*
X25459905Y40784538D01*
X25508019Y40711032D01*
X25563995Y40625619D01*
X25625695Y40531561D01*
X25690977Y40432122D01*
X25757701Y40330566D01*
X25823727Y40230155D01*
X26115325Y39786905D01*
X26115325Y39752854D01*
X26115325Y39658912D01*
X26115325Y39530919D01*
X24598068Y39535086D01*
X24520962Y39535300D01*
X24305666Y39535931D01*
X24112365Y39536563D01*
X23939810Y39537213D01*
X23786750Y39537900D01*
X23651939Y39538643D01*
X23534125Y39539460D01*
X23432062Y39540369D01*
X23344498Y39541389D01*
X23270187Y39542538D01*
X23207878Y39543834D01*
X23156323Y39545297D01*
X23114272Y39546944D01*
X23080478Y39548793D01*
X23053690Y39550864D01*
X23032659Y39553174D01*
X23016138Y39555742D01*
X23002877Y39558586D01*
X22953766Y39571876D01*
X22832943Y39616371D01*
X22732086Y39673055D01*
X22650666Y39742442D01*
X22588154Y39825049D01*
X22544020Y39921392D01*
X22517737Y40031987D01*
X22511073Y40112610D01*
X22514388Y40158781D01*
X22820584Y40158781D01*
X22821017Y40106385D01*
X22823331Y40062972D01*
X22828756Y40029938D01*
X22838514Y40000226D01*
X22853827Y39966777D01*
X22856184Y39962053D01*
X22901280Y39894111D01*
X22961170Y39841480D01*
X23039405Y39800991D01*
X23047769Y39797711D01*
X23068272Y39790629D01*
X23090360Y39785095D01*
X23117185Y39780865D01*
X23151903Y39777697D01*
X23197666Y39775351D01*
X23257629Y39773584D01*
X23334945Y39772154D01*
X23432767Y39770820D01*
X23761063Y39766706D01*
X23761063Y39769620D01*
X24056824Y39769620D01*
X24056824Y39680269D01*
X24056824Y39590919D01*
X25062413Y39590919D01*
X26068003Y39590919D01*
X26068003Y39671886D01*
X26068003Y39752854D01*
X25654216Y40381788D01*
X25240428Y41010722D01*
X25237192Y41214723D01*
X25233955Y41418725D01*
X25056498Y41418725D01*
X24879041Y41418725D01*
X24875803Y41214367D01*
X24872565Y41010010D01*
X24464695Y40389815D01*
X24056824Y39769620D01*
X23761063Y39769620D01*
X23761063Y40158781D01*
X23761063Y40550855D01*
X23432767Y40546741D01*
X23387344Y40546156D01*
X23298945Y40544817D01*
X23229665Y40543281D01*
X23176343Y40541303D01*
X23135818Y40538640D01*
X23104928Y40535046D01*
X23080514Y40530277D01*
X23059413Y40524089D01*
X23038466Y40516236D01*
X23037555Y40515871D01*
X22956556Y40472500D01*
X22893062Y40415210D01*
X22848881Y40345625D01*
X22842392Y40330641D01*
X22831267Y40298421D01*
X22824636Y40263741D01*
X22821432Y40219546D01*
X22820584Y40158781D01*
X22514388Y40158781D01*
X22519116Y40224645D01*
X22546494Y40331284D01*
X22592051Y40428476D01*
X22654634Y40512170D01*
X22678985Y40535411D01*
X22732283Y40576139D01*
X22793224Y40613827D01*
X22853843Y40643754D01*
X22906176Y40661203D01*
X22931447Y40668688D01*
X22949236Y40678935D01*
X22951075Y40687539D01*
X22933868Y40691151D01*
X22886947Y40699117D01*
X22829462Y40723239D01*
X22771005Y40759662D01*
X22717779Y40804476D01*
X22675985Y40853771D01*
X22662096Y40876318D01*
X22628275Y40956655D01*
X22608463Y41048680D01*
X22603156Y41146024D01*
X22889348Y41146024D01*
X22891518Y41059442D01*
X22904096Y41000930D01*
X22934165Y40930597D01*
X22979741Y40875169D01*
X23042302Y40833434D01*
X23123327Y40804177D01*
X23224293Y40786183D01*
X23263348Y40782739D01*
X23318831Y40779597D01*
X23383675Y40777137D01*
X23453756Y40775393D01*
X23524947Y40774398D01*
X23593124Y40774187D01*
X23654160Y40774793D01*
X23703932Y40776250D01*
X23738312Y40778591D01*
X23753176Y40781852D01*
X23753201Y40781879D01*
X23755286Y40795608D01*
X23757162Y40829806D01*
X23758754Y40881319D01*
X23759986Y40946993D01*
X23760781Y41023673D01*
X23761063Y41108205D01*
X23761063Y41426671D01*
X23450513Y41422698D01*
X23139964Y41418725D01*
X23060901Y41381269D01*
X23007626Y41349881D01*
X22948620Y41293557D01*
X22908788Y41224834D01*
X22889348Y41146024D01*
X22603156Y41146024D01*
X22603131Y41146487D01*
X22612745Y41244170D01*
X22637773Y41335824D01*
X22671456Y41400574D01*
X22726576Y41468742D01*
X22795696Y41528647D01*
X22873778Y41575176D01*
X22902404Y41588375D01*
X22941035Y41604654D01*
X22979110Y41618037D01*
X23019319Y41628838D01*
X23064352Y41637372D01*
X23116901Y41643955D01*
X23179657Y41648902D01*
X23255311Y41652528D01*
X23346552Y41655147D01*
X23456073Y41657075D01*
X23586563Y41658627D01*
X24044994Y41663372D01*
X24044994Y41108205D01*
X24044994Y40766576D01*
G37*
G36*
X25136876Y40613415D02*
G01*
X25140741Y40596559D01*
X25126429Y40571684D01*
X25113470Y40555304D01*
X25114012Y40541830D01*
X25130893Y40522771D01*
X25156473Y40497191D01*
X25184565Y40523582D01*
X25201501Y40538169D01*
X25215328Y40542340D01*
X25227897Y40531612D01*
X25230689Y40528083D01*
X25236327Y40511244D01*
X25223757Y40491838D01*
X25219326Y40486885D01*
X25206652Y40468481D01*
X25211164Y40454791D01*
X25234504Y40437525D01*
X25254852Y40425724D01*
X25269558Y40426808D01*
X25286385Y40444653D01*
X25296791Y40456540D01*
X25311440Y40464304D01*
X25327541Y40455420D01*
X25336310Y40447546D01*
X25340441Y40435287D01*
X25327463Y40417795D01*
X25315731Y40398260D01*
X25318776Y40371715D01*
X25344187Y40349223D01*
X25346095Y40348231D01*
X25367309Y40344447D01*
X25387751Y40359899D01*
X25390144Y40362481D01*
X25409990Y40375813D01*
X25431759Y40370337D01*
X25431786Y40370322D01*
X25447046Y40360578D01*
X25446630Y40350394D01*
X25430204Y40331435D01*
X25405364Y40304995D01*
X25434701Y40277435D01*
X25438725Y40273645D01*
X25455255Y40255491D01*
X25455938Y40241091D01*
X25442148Y40219826D01*
X25441981Y40219597D01*
X25427928Y40198032D01*
X25428745Y40184870D01*
X25445028Y40169719D01*
X25454507Y40161511D01*
X25462802Y40146778D01*
X25453696Y40130262D01*
X25445343Y40121084D01*
X25433103Y40117663D01*
X25415213Y40131118D01*
X25400077Y40143027D01*
X25386487Y40142672D01*
X25367376Y40125918D01*
X25351276Y40108111D01*
X25349525Y40094615D01*
X25363314Y40076826D01*
X25375468Y40057272D01*
X25377235Y40033720D01*
X25371498Y40022594D01*
X25360980Y40021538D01*
X25339187Y40034287D01*
X25338962Y40034435D01*
X25316816Y40046825D01*
X25301013Y40044961D01*
X25280089Y40027529D01*
X25251568Y40000736D01*
X25277032Y39973631D01*
X25287702Y39961410D01*
X25295283Y39944148D01*
X25287153Y39928039D01*
X25277756Y39918625D01*
X25265158Y39918326D01*
X25245437Y39934330D01*
X25219063Y39959107D01*
X25194232Y39927540D01*
X25169401Y39895972D01*
X25195379Y39874936D01*
X25206253Y39865459D01*
X25214233Y39850773D01*
X25205257Y39834500D01*
X25199511Y39827947D01*
X25186307Y39821403D01*
X25169217Y39833145D01*
X25151001Y39846729D01*
X25130965Y39847964D01*
X25112481Y39827528D01*
X25107883Y39820295D01*
X25095704Y39806723D01*
X25081193Y39807901D01*
X25055779Y39823172D01*
X25038153Y39833683D01*
X25022177Y39835598D01*
X25004984Y39823172D01*
X24994536Y39814978D01*
X24969517Y39805361D01*
X24952448Y39810614D01*
X24948422Y39827288D01*
X24962529Y39851934D01*
X24973941Y39865710D01*
X24976172Y39879823D01*
X24961855Y39898511D01*
X24942207Y39916283D01*
X24920495Y39919813D01*
X24894983Y39902793D01*
X24891064Y39899355D01*
X24872818Y39889942D01*
X24855304Y39898574D01*
X24847663Y39905561D01*
X24843974Y39918028D01*
X24857293Y39936116D01*
X24869237Y39951330D01*
X24868790Y39964917D01*
X24851969Y39984078D01*
X24826389Y40009658D01*
X24798296Y39983266D01*
X24781360Y39968679D01*
X24767534Y39964509D01*
X24754964Y39975236D01*
X24752172Y39978766D01*
X24746535Y39995604D01*
X24759104Y40015011D01*
X24762585Y40018904D01*
X24776170Y40038716D01*
X24771918Y40053591D01*
X24748296Y40071540D01*
X24728063Y40083396D01*
X24714346Y40082678D01*
X24700274Y40065856D01*
X24695492Y40059389D01*
X24679102Y40047245D01*
X24658366Y40053276D01*
X24634293Y40066160D01*
X24659132Y40092600D01*
X24683971Y40119040D01*
X24654263Y40146950D01*
X24624554Y40174860D01*
X24651086Y40203103D01*
X24677619Y40231345D01*
X24648778Y40253100D01*
X24635316Y40264143D01*
X24627348Y40278366D01*
X24635839Y40294014D01*
X24643433Y40302462D01*
X24655734Y40306644D01*
X24673264Y40293695D01*
X24693250Y40281803D01*
X24719672Y40285275D01*
X24742259Y40311208D01*
X24745132Y40317030D01*
X24746741Y40335690D01*
X24729318Y40352759D01*
X24721888Y40358259D01*
X24711024Y40372770D01*
X24718531Y40388512D01*
X24726518Y40396826D01*
X24739957Y40399572D01*
X24761795Y40387693D01*
X24780546Y40377019D01*
X24795597Y40378472D01*
X24813554Y40397004D01*
X24820717Y40405756D01*
X24834635Y40427605D01*
X24831822Y40442782D01*
X24812090Y40459262D01*
X24804708Y40464725D01*
X24793833Y40479237D01*
X24801345Y40494986D01*
X24809667Y40503525D01*
X24823205Y40505829D01*
X24845401Y40493648D01*
X24864938Y40482474D01*
X24880779Y40483361D01*
X24900511Y40500525D01*
X24926363Y40526571D01*
X24897370Y40548593D01*
X24883707Y40559888D01*
X24875803Y40574152D01*
X24884278Y40589775D01*
X24889940Y40596230D01*
X24903046Y40602656D01*
X24920118Y40590891D01*
X24938788Y40577229D01*
X24960797Y40576028D01*
X24984988Y40595925D01*
X24997723Y40608533D01*
X25012543Y40612127D01*
X25034446Y40600281D01*
X25050359Y40590746D01*
X25066815Y40588384D01*
X25084351Y40600864D01*
X25094800Y40609071D01*
X25119880Y40618753D01*
X25136876Y40613415D01*
G37*
G36*
X21603681Y41675361D02*
G01*
X21737940Y41641850D01*
X21836813Y41601488D01*
X21937872Y41540183D01*
X22019868Y41465252D01*
X22082372Y41377321D01*
X22124956Y41277014D01*
X22147193Y41164958D01*
X22148653Y41041778D01*
X22143436Y40990817D01*
X22122511Y40897239D01*
X22086661Y40817504D01*
X22034245Y40747386D01*
X21994618Y40708045D01*
X21938241Y40663740D01*
X21872848Y40625115D01*
X21795511Y40590915D01*
X21703302Y40559886D01*
X21593295Y40530772D01*
X21462562Y40502319D01*
X21399829Y40489371D01*
X21302476Y40467205D01*
X21223685Y40445764D01*
X21160256Y40423875D01*
X21108989Y40400364D01*
X21066686Y40374059D01*
X21030147Y40343786D01*
X20982769Y40287178D01*
X20950870Y40216861D01*
X20936146Y40132310D01*
X20935077Y40111407D01*
X20942300Y40018929D01*
X20969776Y39938448D01*
X21017360Y39870273D01*
X21084907Y39814714D01*
X21089197Y39812035D01*
X21173554Y39772153D01*
X21274165Y39744928D01*
X21387335Y39730615D01*
X21509371Y39729471D01*
X21636581Y39741749D01*
X21765270Y39767705D01*
X21782637Y39772321D01*
X21818753Y39783069D01*
X21858999Y39796798D01*
X21906865Y39814850D01*
X21965842Y39838568D01*
X22039422Y39869294D01*
X22131095Y39908369D01*
X22131190Y39908402D01*
X22134727Y39898389D01*
X22137620Y39869244D01*
X22139573Y39825384D01*
X22140290Y39771226D01*
X22140290Y39630139D01*
X22036773Y39599096D01*
X21938325Y39571010D01*
X21812864Y39540589D01*
X21693683Y39518824D01*
X21572427Y39504006D01*
X21553866Y39502424D01*
X21438926Y39499309D01*
X21316601Y39505730D01*
X21196881Y39520859D01*
X21089754Y39543874D01*
X21023273Y39564915D01*
X20911725Y39615903D01*
X20817735Y39681386D01*
X20742063Y39760649D01*
X20685471Y39852979D01*
X20648717Y39957663D01*
X20646130Y39970066D01*
X20639688Y40018162D01*
X20635458Y40076499D01*
X20634251Y40135120D01*
X20636720Y40190029D01*
X20656421Y40305475D01*
X20695735Y40407704D01*
X20754718Y40496810D01*
X20833429Y40572892D01*
X20931925Y40636045D01*
X20964626Y40652369D01*
X21011698Y40672878D01*
X21063914Y40691806D01*
X21124919Y40710226D01*
X21198352Y40729210D01*
X21287858Y40749834D01*
X21397077Y40773171D01*
X21439454Y40782172D01*
X21539545Y40805422D01*
X21620028Y40827818D01*
X21683776Y40850479D01*
X21733662Y40874523D01*
X21772561Y40901067D01*
X21803346Y40931230D01*
X21842330Y40993677D01*
X21862492Y41065232D01*
X21863851Y41140865D01*
X21846878Y41216073D01*
X21812045Y41286351D01*
X21759821Y41347198D01*
X21730289Y41371348D01*
X21657239Y41413918D01*
X21570688Y41442550D01*
X21466947Y41458648D01*
X21415291Y41462212D01*
X21286416Y41460715D01*
X21155993Y41443575D01*
X21019403Y41410018D01*
X20872027Y41359275D01*
X20843912Y41348481D01*
X20802572Y41332880D01*
X20773208Y41322155D01*
X20760854Y41318166D01*
X20759120Y41327598D01*
X20757566Y41356293D01*
X20756513Y41399631D01*
X20756126Y41452920D01*
X20756126Y41587674D01*
X20847812Y41612291D01*
X20928286Y41632659D01*
X21116061Y41669785D01*
X21291828Y41689298D01*
X21454672Y41691167D01*
X21603681Y41675361D01*
G37*
G36*
X49940790Y46447701D02*
G01*
X49915935Y46356009D01*
X49870941Y46270125D01*
X49805797Y46193338D01*
X49756484Y46151098D01*
X49680775Y46104492D01*
X49598256Y46076499D01*
X49502495Y46064385D01*
X49490648Y46063927D01*
X49383240Y46071241D01*
X49285100Y46099070D01*
X49198168Y46146651D01*
X49124387Y46213217D01*
X49115523Y46224081D01*
X49089988Y46261698D01*
X49064140Y46306858D01*
X49041419Y46352806D01*
X49025262Y46392789D01*
X49019107Y46420052D01*
X49018630Y46421213D01*
X49016449Y46422573D01*
X49011994Y46423869D01*
X49004718Y46425102D01*
X48994072Y46426274D01*
X48979508Y46427385D01*
X48960476Y46428439D01*
X48936429Y46429436D01*
X48906819Y46430378D01*
X48871096Y46431266D01*
X48828713Y46432102D01*
X48779121Y46432888D01*
X48721772Y46433625D01*
X48656117Y46434315D01*
X48581608Y46434959D01*
X48497697Y46435559D01*
X48403834Y46436116D01*
X48299472Y46436632D01*
X48184063Y46437109D01*
X48057058Y46437547D01*
X47917907Y46437950D01*
X47766065Y46438317D01*
X47600980Y46438651D01*
X47422106Y46438954D01*
X47228894Y46439226D01*
X47020796Y46439470D01*
X46797262Y46439686D01*
X46557746Y46439878D01*
X46301697Y46440045D01*
X46028568Y46440190D01*
X45737811Y46440314D01*
X45428877Y46440419D01*
X45101218Y46440506D01*
X44754285Y46440577D01*
X44387530Y46440634D01*
X44000404Y46440678D01*
X43592360Y46440710D01*
X43162848Y46440732D01*
X42711320Y46440746D01*
X42237228Y46440753D01*
X41740024Y46440756D01*
X34460951Y46440756D01*
X34260420Y46100630D01*
X34248562Y46080519D01*
X34192045Y45984706D01*
X34133212Y45885021D01*
X34074928Y45786316D01*
X34020058Y45693443D01*
X33971468Y45611253D01*
X33932023Y45544598D01*
X33804157Y45328692D01*
X33473388Y45328692D01*
X33142618Y45328692D01*
X33142618Y45441082D01*
X33142618Y45553471D01*
X33405846Y45553831D01*
X33669074Y45554190D01*
X33999679Y46115777D01*
X34220326Y46490583D01*
X49247242Y46490583D01*
X49266236Y46423010D01*
X49282507Y46392690D01*
X49327186Y46341335D01*
X49388581Y46305270D01*
X49438111Y46290944D01*
X49506659Y46289646D01*
X49572042Y46307550D01*
X49629773Y46342525D01*
X49675365Y46392442D01*
X49704331Y46455170D01*
X49712546Y46504202D01*
X49706259Y46569108D01*
X49682112Y46627265D01*
X49643400Y46676369D01*
X49593412Y46714117D01*
X49535442Y46738205D01*
X49472783Y46746331D01*
X49408725Y46736191D01*
X49346561Y46705482D01*
X49315306Y46679628D01*
X49273091Y46623513D01*
X49249965Y46558957D01*
X49247242Y46490583D01*
X34220326Y46490583D01*
X34330284Y46677365D01*
X41685086Y46677365D01*
X49039888Y46677365D01*
X49055244Y46714439D01*
X49074706Y46751596D01*
X49115190Y46806941D01*
X49164620Y46858687D01*
X49215837Y46898624D01*
X49254984Y46921449D01*
X49330989Y46953587D01*
X49410734Y46969382D01*
X49502495Y46970922D01*
X49564166Y46965061D01*
X49651533Y46943152D01*
X49729379Y46903600D01*
X49803844Y46843817D01*
X49839013Y46806748D01*
X49894617Y46724724D01*
X49930121Y46635348D01*
X49945515Y46541911D01*
X49943624Y46504202D01*
X49940790Y46447701D01*
G37*
G36*
X49996890Y44619876D02*
G01*
X49998171Y44484783D01*
X49998572Y44438761D01*
X49999521Y44297637D01*
X49999737Y44177465D01*
X49999080Y44076159D01*
X49997413Y43991635D01*
X49994597Y43921805D01*
X49990494Y43864585D01*
X49984967Y43817888D01*
X49977877Y43779629D01*
X49969085Y43747721D01*
X49958455Y43720080D01*
X49945847Y43694619D01*
X49939219Y43682961D01*
X49882122Y43608062D01*
X49806986Y43542891D01*
X49717992Y43490529D01*
X49619321Y43454056D01*
X49605760Y43451131D01*
X49583006Y43448050D01*
X49551682Y43445424D01*
X49510111Y43443219D01*
X49456617Y43441400D01*
X49389522Y43439931D01*
X49307151Y43438776D01*
X49207826Y43437901D01*
X49089870Y43437269D01*
X48951607Y43436846D01*
X48791361Y43436597D01*
X48025338Y43435818D01*
X48025338Y43684258D01*
X48025338Y43932698D01*
X48735166Y43932698D01*
X49444994Y43932698D01*
X49444994Y44051002D01*
X49444994Y44169307D01*
X48651532Y44169307D01*
X47858071Y44169307D01*
X47862152Y44580416D01*
X47863047Y44667440D01*
X47864183Y44760920D01*
X47865462Y44835563D01*
X47865689Y44843895D01*
X48415744Y44843895D01*
X48415744Y44760956D01*
X48415744Y44678017D01*
X48930909Y44678017D01*
X49446075Y44678017D01*
X49442577Y44757872D01*
X49439079Y44837728D01*
X48927411Y44840811D01*
X48415744Y44843895D01*
X47865689Y44843895D01*
X47867058Y44894087D01*
X47869149Y44939211D01*
X47871910Y44973654D01*
X47875517Y45000133D01*
X47880148Y45021368D01*
X47885979Y45040076D01*
X47893185Y45058977D01*
X47894406Y45061997D01*
X47941601Y45146988D01*
X48008436Y45222166D01*
X48092083Y45284919D01*
X48189709Y45332636D01*
X48202657Y45337365D01*
X48217471Y45341945D01*
X48234425Y45345812D01*
X48255478Y45349038D01*
X48282584Y45351699D01*
X48317701Y45353869D01*
X48362783Y45355621D01*
X48419789Y45357031D01*
X48490674Y45358170D01*
X48577394Y45359115D01*
X48681906Y45359939D01*
X48806166Y45360717D01*
X48952130Y45361521D01*
X49100887Y45362296D01*
X49232969Y45362831D01*
X49345215Y45362947D01*
X49439565Y45362491D01*
X49517963Y45361312D01*
X49582349Y45359256D01*
X49634667Y45356171D01*
X49676858Y45351906D01*
X49710864Y45346308D01*
X49738627Y45339224D01*
X49762089Y45330503D01*
X49783192Y45319992D01*
X49803877Y45307539D01*
X49826088Y45292992D01*
X49844155Y45279627D01*
X49885037Y45241513D01*
X49917803Y45201379D01*
X49921342Y45196027D01*
X49937551Y45170803D01*
X49951125Y45146985D01*
X49962320Y45122293D01*
X49971391Y45094449D01*
X49978594Y45061174D01*
X49984184Y45020190D01*
X49988418Y44969218D01*
X49991549Y44905979D01*
X49993835Y44828195D01*
X49995530Y44733587D01*
X49996195Y44678017D01*
X49996890Y44619876D01*
G37*
G36*
X32260550Y43897157D02*
G01*
X32257981Y43837734D01*
X32254946Y43798164D01*
X32242229Y43718456D01*
X32219542Y43642840D01*
X32186598Y43581639D01*
X32141514Y43530406D01*
X32094493Y43491849D01*
X32047478Y43466132D01*
X31989148Y43447365D01*
X31975479Y43445949D01*
X31939247Y43444313D01*
X31883426Y43442763D01*
X31810230Y43441330D01*
X31721872Y43440047D01*
X31620567Y43438943D01*
X31508527Y43438052D01*
X31387968Y43437403D01*
X31261103Y43437029D01*
X31144464Y43436843D01*
X31007518Y43436760D01*
X30890756Y43437004D01*
X30792187Y43437727D01*
X30709822Y43439078D01*
X30641669Y43441206D01*
X30585739Y43444262D01*
X30540040Y43448396D01*
X30502583Y43453758D01*
X30471378Y43460497D01*
X30444433Y43468765D01*
X30419759Y43478710D01*
X30395365Y43490482D01*
X30369261Y43504233D01*
X30351149Y43514689D01*
X30293022Y43556971D01*
X30237117Y43609041D01*
X30189891Y43664413D01*
X30157804Y43716601D01*
X30153565Y43725955D01*
X30148596Y43738444D01*
X30144445Y43752556D01*
X30141040Y43770293D01*
X30138307Y43793659D01*
X30136171Y43824658D01*
X30134560Y43865293D01*
X30133399Y43917568D01*
X30132614Y43983486D01*
X30132132Y44065051D01*
X30131880Y44164266D01*
X30131782Y44283135D01*
X30131766Y44423662D01*
X30131766Y44843895D01*
X30681883Y44843895D01*
X30681883Y44388296D01*
X30681883Y43932698D01*
X31196648Y43932698D01*
X31711414Y43932698D01*
X31708316Y44385213D01*
X31705217Y44837728D01*
X31193550Y44840811D01*
X30681883Y44843895D01*
X30131766Y44843895D01*
X30131766Y45074337D01*
X30165212Y45146709D01*
X30180229Y45175886D01*
X30227284Y45243170D01*
X30284004Y45298881D01*
X30344714Y45337005D01*
X30346101Y45337619D01*
X30357735Y45342021D01*
X30372172Y45345776D01*
X30391310Y45348949D01*
X30417043Y45351603D01*
X30451268Y45353799D01*
X30495881Y45355602D01*
X30552779Y45357074D01*
X30623857Y45358278D01*
X30711011Y45359278D01*
X30816138Y45360135D01*
X30941133Y45360913D01*
X31087893Y45361674D01*
X31194382Y45362105D01*
X31349603Y45362348D01*
X31485543Y45362050D01*
X31601475Y45361218D01*
X31696667Y45359863D01*
X31770392Y45357992D01*
X31821920Y45355614D01*
X31850521Y45352737D01*
X31950251Y45324987D01*
X32044476Y45277592D01*
X32123654Y45213597D01*
X32186197Y45134629D01*
X32230514Y45042317D01*
X32255018Y44938287D01*
X32257995Y44902538D01*
X32260566Y44845944D01*
X32262668Y44772334D01*
X32264302Y44685059D01*
X32265469Y44587471D01*
X32266167Y44482923D01*
X32266399Y44374765D01*
X32266163Y44266351D01*
X32265459Y44161031D01*
X32264289Y44062157D01*
X32262653Y43973082D01*
X32261534Y43932698D01*
X32260550Y43897157D01*
G37*
G36*
X28039669Y42158129D02*
G01*
X24499845Y42158129D01*
X20960020Y42158129D01*
X20926812Y42090254D01*
X20919059Y42075238D01*
X20863455Y41995577D01*
X20791116Y41926814D01*
X20707275Y41873194D01*
X20617166Y41838966D01*
X20613458Y41838114D01*
X20577273Y41833519D01*
X20528383Y41831270D01*
X20476270Y41831847D01*
X20436269Y41835133D01*
X20336716Y41858184D01*
X20247938Y41900280D01*
X20171973Y41959168D01*
X20110861Y42032594D01*
X20066641Y42118302D01*
X20041352Y42214038D01*
X20037195Y42313615D01*
X20271615Y42313615D01*
X20273240Y42250540D01*
X20291877Y42190106D01*
X20326801Y42136318D01*
X20377290Y42093185D01*
X20442618Y42064713D01*
X20476687Y42057574D01*
X20545269Y42058538D01*
X20608646Y42082174D01*
X20668400Y42128932D01*
X20688890Y42152004D01*
X20723436Y42213589D01*
X20735884Y42280284D01*
X20725971Y42349070D01*
X20693434Y42416931D01*
X20675791Y42439574D01*
X20624683Y42480233D01*
X20562886Y42504949D01*
X20495942Y42512752D01*
X20429388Y42502674D01*
X20368764Y42473745D01*
X20322290Y42431654D01*
X20287723Y42375321D01*
X20271615Y42313615D01*
X20037195Y42313615D01*
X20037031Y42317548D01*
X20041245Y42357003D01*
X20065876Y42450445D01*
X20108261Y42532807D01*
X20165641Y42603078D01*
X20235259Y42660252D01*
X20314357Y42703318D01*
X20400179Y42731268D01*
X20489967Y42743094D01*
X20580963Y42737786D01*
X20670410Y42714335D01*
X20755551Y42671734D01*
X20833628Y42608973D01*
X20840715Y42601655D01*
X20872878Y42562714D01*
X20904283Y42516999D01*
X20931258Y42470686D01*
X20950136Y42429951D01*
X20957243Y42400971D01*
X20957509Y42400233D01*
X20960684Y42398503D01*
X20968069Y42396895D01*
X20980442Y42395404D01*
X20998581Y42394028D01*
X21023264Y42392763D01*
X21055269Y42391605D01*
X21095375Y42390552D01*
X21144358Y42389599D01*
X21202998Y42388744D01*
X21272071Y42387984D01*
X21352358Y42387314D01*
X21444634Y42386731D01*
X21549679Y42386232D01*
X21668270Y42385814D01*
X21801185Y42385473D01*
X21949204Y42385205D01*
X22113102Y42385009D01*
X22293659Y42384879D01*
X22491653Y42384812D01*
X22707861Y42384806D01*
X22943062Y42384857D01*
X23198034Y42384961D01*
X23473554Y42385116D01*
X23770402Y42385317D01*
X24089354Y42385561D01*
X24431188Y42385845D01*
X27905133Y42388823D01*
X28233473Y42944854D01*
X28561813Y43500886D01*
X28894274Y43504028D01*
X29226736Y43507170D01*
X29226736Y43388903D01*
X29226736Y43270636D01*
X28959689Y43267456D01*
X28692642Y43264277D01*
X28366156Y42711203D01*
X28111779Y42280284D01*
X28039669Y42158129D01*
G37*
G36*
X29528110Y48877831D02*
G01*
X29527973Y48842607D01*
X29525962Y48796761D01*
X29520339Y48761343D01*
X29509514Y48728042D01*
X29491897Y48688543D01*
X29450012Y48617738D01*
X29381110Y48540876D01*
X29296727Y48479302D01*
X29200117Y48435834D01*
X29198145Y48435089D01*
X29191749Y48430060D01*
X29186989Y48419328D01*
X29183628Y48399898D01*
X29181427Y48368778D01*
X29180150Y48322977D01*
X29179558Y48259500D01*
X29179414Y48175356D01*
X29179414Y47921696D01*
X29716894Y47397132D01*
X30254374Y46872567D01*
X30255180Y46599481D01*
X30255205Y46554605D01*
X30254748Y46480613D01*
X30253723Y46416582D01*
X30252215Y46365938D01*
X30250312Y46332105D01*
X30248099Y46318507D01*
X30243088Y46316641D01*
X30218429Y46313549D01*
X30178769Y46311416D01*
X30129794Y46310620D01*
X30019377Y46310620D01*
X30018748Y46544272D01*
X30018120Y46777924D01*
X29480462Y47302480D01*
X28942805Y47827037D01*
X28942805Y48126540D01*
X28942805Y48426043D01*
X28866739Y48461638D01*
X28784707Y48509003D01*
X28709104Y48575912D01*
X28652877Y48655737D01*
X28616766Y48747395D01*
X28601511Y48849802D01*
X28601361Y48871910D01*
X28832118Y48871910D01*
X28841114Y48811582D01*
X28869296Y48749395D01*
X28913419Y48699107D01*
X28970193Y48665635D01*
X28971947Y48664983D01*
X29037134Y48652191D01*
X29107731Y48656524D01*
X29175290Y48676522D01*
X29231364Y48710727D01*
X29251834Y48733175D01*
X29278594Y48784407D01*
X29293532Y48845110D01*
X29295107Y48907546D01*
X29281781Y48963981D01*
X29279131Y48969832D01*
X29251357Y49010732D01*
X29211561Y49049964D01*
X29167303Y49081042D01*
X29126144Y49097481D01*
X29119263Y49098691D01*
X29043428Y49101147D01*
X28974688Y49084359D01*
X28916115Y49050685D01*
X28870782Y49002481D01*
X28841759Y48942104D01*
X28832118Y48871910D01*
X28601361Y48871910D01*
X28601141Y48904211D01*
X28611611Y48990076D01*
X28637963Y49066607D01*
X28682053Y49140508D01*
X28694535Y49157059D01*
X28763507Y49226564D01*
X28845800Y49280487D01*
X28936927Y49316925D01*
X29032399Y49333970D01*
X29127727Y49329717D01*
X29175238Y49319713D01*
X29275317Y49282829D01*
X29362565Y49227576D01*
X29434832Y49155506D01*
X29489965Y49068172D01*
X29502275Y49042047D01*
X29515948Y49007307D01*
X29523699Y48973911D01*
X29527196Y48933528D01*
X29527622Y48907546D01*
X29528110Y48877831D01*
G37*
G36*
X31635392Y48828540D02*
G01*
X31615987Y48736326D01*
X31578075Y48649888D01*
X31522636Y48572395D01*
X31450653Y48507020D01*
X31363107Y48456932D01*
X31285236Y48423008D01*
X31285236Y47372729D01*
X31285236Y46322451D01*
X31166931Y46322451D01*
X31048627Y46322451D01*
X31048627Y47375733D01*
X31048625Y47445642D01*
X31048586Y47619436D01*
X31048479Y47771554D01*
X31048274Y47903444D01*
X31047944Y48016557D01*
X31047460Y48112341D01*
X31046793Y48192246D01*
X31045916Y48257722D01*
X31044800Y48310217D01*
X31043417Y48351182D01*
X31041739Y48382065D01*
X31039737Y48404315D01*
X31037382Y48419383D01*
X31034647Y48428718D01*
X31031504Y48433769D01*
X31027923Y48435985D01*
X30965457Y48461823D01*
X30877850Y48517357D01*
X30805098Y48589074D01*
X30750269Y48674342D01*
X30747332Y48680333D01*
X30730695Y48716383D01*
X30720190Y48746823D01*
X30714424Y48778970D01*
X30712004Y48820139D01*
X30711534Y48877646D01*
X30711590Y48884210D01*
X30936113Y48884210D01*
X30942628Y48816914D01*
X30965687Y48766792D01*
X31004613Y48718029D01*
X31052330Y48678235D01*
X31101903Y48654480D01*
X31117801Y48650433D01*
X31188804Y48643380D01*
X31253257Y48657730D01*
X31315691Y48694326D01*
X31329064Y48705426D01*
X31371363Y48757498D01*
X31396453Y48818822D01*
X31403556Y48884049D01*
X31391899Y48947832D01*
X31360706Y49004826D01*
X31358528Y49007529D01*
X31303956Y49057745D01*
X31240116Y49089267D01*
X31171520Y49101275D01*
X31102678Y49092949D01*
X31038100Y49063470D01*
X31032389Y49059553D01*
X30983249Y49011355D01*
X30950405Y48950965D01*
X30936113Y48884210D01*
X30711590Y48884210D01*
X30711953Y48926504D01*
X30714184Y48971260D01*
X30719414Y49004965D01*
X30728823Y49034593D01*
X30743590Y49067118D01*
X30762034Y49099381D01*
X30796091Y49147665D01*
X30832243Y49189650D01*
X30883154Y49234466D01*
X30968345Y49286090D01*
X31060106Y49318119D01*
X31155201Y49330874D01*
X31250392Y49324676D01*
X31342441Y49299846D01*
X31428113Y49256705D01*
X31504169Y49195574D01*
X31567373Y49116773D01*
X31572744Y49108123D01*
X31614752Y49017609D01*
X31635308Y48923358D01*
X31635343Y48884049D01*
X31635392Y48828540D01*
G37*
G36*
X29501716Y39834864D02*
G01*
X29476210Y39752753D01*
X29431055Y39673773D01*
X29427760Y39669117D01*
X29361785Y39594839D01*
X29283130Y39536020D01*
X29197160Y39496720D01*
X29110289Y39477065D01*
X29008139Y39473998D01*
X28909649Y39491620D01*
X28817860Y39528645D01*
X28735819Y39583790D01*
X28666568Y39655768D01*
X28613151Y39743295D01*
X28604953Y39761435D01*
X28593001Y39794014D01*
X28586032Y39827680D01*
X28582779Y39869949D01*
X28581976Y39928335D01*
X28582043Y39935550D01*
X28812670Y39935550D01*
X28817930Y39877827D01*
X28841754Y39812322D01*
X28885202Y39759890D01*
X28948720Y39719822D01*
X29003530Y39702451D01*
X29070274Y39700584D01*
X29133449Y39717607D01*
X29189235Y39751098D01*
X29233812Y39798633D01*
X29263359Y39857791D01*
X29274058Y39926147D01*
X29270770Y39973205D01*
X29252879Y40030377D01*
X29217110Y40079981D01*
X29196186Y40100312D01*
X29154793Y40128216D01*
X29106439Y40142765D01*
X29043364Y40146950D01*
X29008966Y40145927D01*
X28954166Y40136794D01*
X28910459Y40115785D01*
X28870310Y40079981D01*
X28862376Y40071223D01*
X28831951Y40029926D01*
X28816788Y39988222D01*
X28812670Y39935550D01*
X28582043Y39935550D01*
X28582464Y39980750D01*
X28585034Y40022329D01*
X28591195Y40055047D01*
X28602456Y40086624D01*
X28620321Y40124780D01*
X28629310Y40142065D01*
X28688249Y40225883D01*
X28764557Y40296071D01*
X28854632Y40349180D01*
X28930974Y40383795D01*
X28932038Y40688312D01*
X28933102Y40992828D01*
X29464409Y41511669D01*
X29995716Y42030510D01*
X29995716Y42259946D01*
X29995716Y42489382D01*
X30114020Y42489382D01*
X30232325Y42489382D01*
X30232325Y42213943D01*
X30232325Y41938504D01*
X29992758Y41702023D01*
X29975676Y41685165D01*
X29901200Y41611743D01*
X29815628Y41527480D01*
X29723565Y41436903D01*
X29629615Y41344543D01*
X29538383Y41254927D01*
X29454472Y41172584D01*
X29155753Y40879625D01*
X29155753Y40631710D01*
X29155753Y40383795D01*
X29232095Y40349180D01*
X29318700Y40299399D01*
X29394713Y40231673D01*
X29452678Y40150854D01*
X29491019Y40059170D01*
X29508159Y39958850D01*
X29509268Y39926378D01*
X29509249Y39926147D01*
X29501716Y39834864D01*
G37*
G36*
X33737722Y48836250D02*
G01*
X33720592Y48746589D01*
X33684493Y48660600D01*
X33628975Y48581100D01*
X33553588Y48510909D01*
X33530530Y48494769D01*
X33486414Y48468565D01*
X33447396Y48450380D01*
X33396973Y48432001D01*
X33393821Y48130876D01*
X33390668Y47829751D01*
X33121720Y47564260D01*
X33056031Y47499414D01*
X32962762Y47407337D01*
X32863080Y47308925D01*
X32762792Y47209911D01*
X32667706Y47116029D01*
X32583629Y47033012D01*
X32314486Y46767255D01*
X32314486Y46538938D01*
X32314486Y46310620D01*
X32202097Y46310620D01*
X32089707Y46310620D01*
X32089707Y46593110D01*
X32089707Y46875600D01*
X32622304Y47399245D01*
X33154901Y47922890D01*
X33151717Y48176908D01*
X33148534Y48430926D01*
X33083466Y48455119D01*
X33036854Y48478179D01*
X32975097Y48523386D01*
X32916892Y48580487D01*
X32868196Y48643462D01*
X32834966Y48706289D01*
X32833331Y48710612D01*
X32813893Y48786135D01*
X32808406Y48845095D01*
X33039004Y48845095D01*
X33054571Y48786229D01*
X33088096Y48732397D01*
X33140724Y48687201D01*
X33144657Y48684729D01*
X33182027Y48664973D01*
X33218502Y48655652D01*
X33266197Y48653515D01*
X33339780Y48661772D01*
X33403777Y48688080D01*
X33453824Y48733126D01*
X33490989Y48797595D01*
X33504115Y48841919D01*
X33505415Y48906821D01*
X33487392Y48967863D01*
X33452582Y49021503D01*
X33403516Y49064202D01*
X33342729Y49092417D01*
X33272753Y49102609D01*
X33258607Y49102234D01*
X33190471Y49088829D01*
X33133422Y49058839D01*
X33088605Y49015868D01*
X33057167Y48963518D01*
X33040251Y48905393D01*
X33039004Y48845095D01*
X32808406Y48845095D01*
X32806069Y48870204D01*
X32810117Y48953252D01*
X32826297Y49025711D01*
X32830635Y49037494D01*
X32875015Y49121488D01*
X32938059Y49196730D01*
X33015679Y49259111D01*
X33103787Y49304524D01*
X33139495Y49315684D01*
X33211758Y49328023D01*
X33289682Y49331457D01*
X33364151Y49325805D01*
X33426044Y49310888D01*
X33467293Y49293511D01*
X33554547Y49240999D01*
X33625528Y49175250D01*
X33679784Y49099083D01*
X33716868Y49015315D01*
X33736331Y48926765D01*
X33736637Y48906821D01*
X33737722Y48836250D01*
G37*
G36*
X31610224Y39883765D02*
G01*
X31607979Y39839428D01*
X31602430Y39805556D01*
X31592198Y39774611D01*
X31575901Y39739057D01*
X31568370Y39724433D01*
X31512171Y39643062D01*
X31439554Y39573327D01*
X31355397Y39519212D01*
X31264581Y39484705D01*
X31259826Y39483640D01*
X31223178Y39479192D01*
X31173957Y39477070D01*
X31121433Y39477726D01*
X31072375Y39480902D01*
X31027746Y39488121D01*
X30985973Y39501832D01*
X30935876Y39524877D01*
X30922691Y39531603D01*
X30840143Y39586206D01*
X30773858Y39655623D01*
X30720456Y39743281D01*
X30709845Y39765839D01*
X30698232Y39796921D01*
X30691561Y39829374D01*
X30688520Y39870622D01*
X30687798Y39928087D01*
X30687857Y39937221D01*
X30918492Y39937221D01*
X30919309Y39915384D01*
X30925050Y39870622D01*
X30934475Y39835836D01*
X30947284Y39812271D01*
X30984414Y39768997D01*
X31031753Y39732458D01*
X31080837Y39709935D01*
X31095438Y39706227D01*
X31164837Y39699929D01*
X31229640Y39715169D01*
X31294218Y39752825D01*
X31338456Y39798843D01*
X31367954Y39857857D01*
X31380332Y39922953D01*
X31374475Y39988150D01*
X31349265Y40047464D01*
X31337638Y40063999D01*
X31288300Y40112836D01*
X31231202Y40143779D01*
X31169968Y40157755D01*
X31108218Y40155692D01*
X31049574Y40138516D01*
X30997658Y40107154D01*
X30956091Y40062533D01*
X30928495Y40005580D01*
X30918492Y39937221D01*
X30687857Y39937221D01*
X30688034Y39964753D01*
X30690071Y40012277D01*
X30695332Y40048423D01*
X30705161Y40080889D01*
X30720905Y40117374D01*
X30736662Y40147764D01*
X30794860Y40228054D01*
X30869441Y40296388D01*
X30955495Y40347942D01*
X31036796Y40385416D01*
X31036796Y41431484D01*
X31036796Y42477551D01*
X31149186Y42477551D01*
X31261575Y42477551D01*
X31261575Y41430673D01*
X31261575Y40383795D01*
X31337917Y40349180D01*
X31356030Y40340510D01*
X31443752Y40283870D01*
X31517019Y40210810D01*
X31572228Y40124780D01*
X31588863Y40089480D01*
X31600622Y40057648D01*
X31607155Y40025327D01*
X31609969Y39984796D01*
X31610571Y39928335D01*
X31610529Y39922953D01*
X31610224Y39883765D01*
G37*
G36*
X33718332Y39924063D02*
G01*
X33705301Y39826773D01*
X33684373Y39761921D01*
X33636007Y39670065D01*
X33569760Y39593615D01*
X33486012Y39532971D01*
X33385143Y39488536D01*
X33353926Y39481596D01*
X33298015Y39476509D01*
X33230143Y39476167D01*
X33217321Y39476594D01*
X33164321Y39479834D01*
X33124011Y39486394D01*
X33087249Y39498319D01*
X33044894Y39517658D01*
X33014245Y39534129D01*
X32933157Y39593605D01*
X32867626Y39666628D01*
X32819246Y39749965D01*
X32789607Y39840383D01*
X32781033Y39927223D01*
X33018468Y39927223D01*
X33022174Y39879726D01*
X33043619Y39816042D01*
X33084774Y39765229D01*
X33146338Y39726187D01*
X33171474Y39715865D01*
X33214553Y39703087D01*
X33249093Y39698442D01*
X33298426Y39704299D01*
X33363012Y39728692D01*
X33416299Y39768710D01*
X33455835Y39820805D01*
X33479164Y39881429D01*
X33483834Y39947035D01*
X33467391Y40014076D01*
X33460120Y40030386D01*
X33425703Y40084400D01*
X33380857Y40120491D01*
X33322241Y40140671D01*
X33246511Y40146950D01*
X33213337Y40146455D01*
X33174083Y40142756D01*
X33144768Y40133824D01*
X33116998Y40117769D01*
X33106326Y40110173D01*
X33056862Y40060637D01*
X33027929Y40000335D01*
X33018468Y39927223D01*
X32781033Y39927223D01*
X32780300Y39934649D01*
X32792917Y40029530D01*
X32794722Y40036395D01*
X32832837Y40136325D01*
X32888962Y40221295D01*
X32962378Y40290438D01*
X33052367Y40342885D01*
X33130152Y40377644D01*
X33130470Y40633281D01*
X33130788Y40888918D01*
X32598417Y41408076D01*
X32066046Y41927234D01*
X32066046Y42208308D01*
X32066046Y42489382D01*
X32184351Y42489382D01*
X32302656Y42489382D01*
X32302656Y42255286D01*
X32302656Y42021190D01*
X32835026Y41502325D01*
X33367397Y40983461D01*
X33367397Y40678513D01*
X33367397Y40373564D01*
X33411761Y40359167D01*
X33459917Y40338300D01*
X33518953Y40302688D01*
X33573964Y40260517D01*
X33615572Y40218267D01*
X33625431Y40205397D01*
X33677605Y40116832D01*
X33708836Y40021902D01*
X33716102Y39947035D01*
X33718332Y39924063D01*
G37*
G36*
X44552475Y44688723D02*
G01*
X44552948Y44561213D01*
X44553098Y44411577D01*
X44553098Y43784309D01*
X44514214Y43705330D01*
X44509131Y43695331D01*
X44467817Y43630151D01*
X44420660Y43578228D01*
X44372511Y43541399D01*
X44304247Y43500708D01*
X44233204Y43468265D01*
X44168608Y43448808D01*
X44165642Y43448362D01*
X44139298Y43446539D01*
X44091978Y43444787D01*
X44025848Y43443137D01*
X43943072Y43441619D01*
X43845814Y43440266D01*
X43736239Y43439107D01*
X43616513Y43438175D01*
X43488800Y43437501D01*
X43355264Y43437115D01*
X42595157Y43435818D01*
X42595157Y43684258D01*
X42595157Y43932698D01*
X43299069Y43932698D01*
X44002982Y43932698D01*
X44002982Y44051002D01*
X44002982Y44169307D01*
X43215573Y44169307D01*
X42428165Y44169307D01*
X42431805Y44592246D01*
X42432543Y44678017D01*
X42972651Y44678017D01*
X43487816Y44678017D01*
X44002982Y44678017D01*
X44002982Y44760956D01*
X44002982Y44843895D01*
X43491314Y44840811D01*
X42979647Y44837728D01*
X42976149Y44757872D01*
X42972651Y44678017D01*
X42432543Y44678017D01*
X42435446Y45015185D01*
X42470116Y45085910D01*
X42483441Y45111073D01*
X42543894Y45194012D01*
X42621302Y45262243D01*
X42713074Y45313814D01*
X42816618Y45346775D01*
X42822240Y45347818D01*
X42859493Y45351923D01*
X42916362Y45355496D01*
X42990142Y45358539D01*
X43078128Y45361053D01*
X43177617Y45363039D01*
X43285904Y45364499D01*
X43400283Y45365433D01*
X43518052Y45365843D01*
X43636506Y45365730D01*
X43752939Y45365095D01*
X43864648Y45363939D01*
X43968929Y45362263D01*
X44063076Y45360070D01*
X44144385Y45357359D01*
X44210153Y45354132D01*
X44257674Y45350390D01*
X44284243Y45346135D01*
X44311971Y45336349D01*
X44385563Y45295100D01*
X44450927Y45236775D01*
X44503358Y45166156D01*
X44538149Y45088029D01*
X44540956Y45075035D01*
X44544078Y45048071D01*
X44546675Y45008183D01*
X44548779Y44953838D01*
X44550424Y44883502D01*
X44551645Y44795642D01*
X44551914Y44760956D01*
X44552475Y44688723D01*
G37*
G36*
X28366724Y46088799D02*
G01*
X28696938Y45529810D01*
X28961837Y45529810D01*
X29226736Y45529810D01*
X29226736Y45417421D01*
X29226736Y45305031D01*
X28892525Y45305098D01*
X28558315Y45305164D01*
X28232133Y45858172D01*
X27905950Y46411179D01*
X24422724Y46413952D01*
X20939498Y46416725D01*
X20911117Y46351162D01*
X20898975Y46325565D01*
X20844766Y46244875D01*
X20774407Y46177837D01*
X20691544Y46126370D01*
X20599825Y46092394D01*
X20502899Y46077828D01*
X20404412Y46084591D01*
X20360562Y46094717D01*
X20266607Y46131600D01*
X20184478Y46185138D01*
X20116147Y46252642D01*
X20063586Y46331424D01*
X20028766Y46418794D01*
X20013658Y46512064D01*
X20013669Y46512223D01*
X20250735Y46512223D01*
X20269829Y46446652D01*
X20309875Y46385560D01*
X20320383Y46374449D01*
X20354147Y46345694D01*
X20385859Y46326604D01*
X20386479Y46326347D01*
X20433085Y46314665D01*
X20488561Y46311342D01*
X20542523Y46316241D01*
X20584584Y46329225D01*
X20614220Y46346976D01*
X20667611Y46395911D01*
X20702105Y46454202D01*
X20717146Y46518080D01*
X20712179Y46583775D01*
X20686649Y46647518D01*
X20640000Y46705538D01*
X20619684Y46721751D01*
X20562117Y46749291D01*
X20496217Y46762030D01*
X20429784Y46758995D01*
X20370615Y46739209D01*
X20359519Y46731756D01*
X20332544Y46708512D01*
X20303453Y46678906D01*
X20275755Y46640675D01*
X20252681Y46578242D01*
X20250735Y46512223D01*
X20013669Y46512223D01*
X20020233Y46608546D01*
X20031006Y46654237D01*
X20070088Y46749836D01*
X20127865Y46833046D01*
X20202201Y46901696D01*
X20290960Y46953613D01*
X20392006Y46986625D01*
X20436499Y46993617D01*
X20533303Y46992531D01*
X20628146Y46970984D01*
X20717189Y46930949D01*
X20796592Y46874402D01*
X20862514Y46803318D01*
X20911117Y46719670D01*
X20939498Y46654141D01*
X24488004Y46650965D01*
X28036511Y46647789D01*
X28113134Y46518080D01*
X28366724Y46088799D01*
G37*
G36*
X49978866Y42299410D02*
G01*
X49965692Y42211968D01*
X49936162Y42128049D01*
X49890501Y42050474D01*
X49828939Y41982065D01*
X49751703Y41925645D01*
X49659019Y41884035D01*
X49576165Y41866699D01*
X49483457Y41865109D01*
X49391577Y41879295D01*
X49309279Y41908641D01*
X49297312Y41914733D01*
X49215052Y41968590D01*
X49146552Y42035046D01*
X49096634Y42109546D01*
X49066030Y42169940D01*
X41711212Y42172907D01*
X34356395Y42175874D01*
X34261069Y42337584D01*
X49280641Y42337584D01*
X49286447Y42273106D01*
X49309756Y42211553D01*
X49348685Y42158419D01*
X49401352Y42119199D01*
X49416796Y42111821D01*
X49488106Y42092351D01*
X49558569Y42095629D01*
X49624884Y42121084D01*
X49683746Y42168141D01*
X49693572Y42179255D01*
X49730472Y42239806D01*
X49746634Y42304640D01*
X49742814Y42369600D01*
X49719771Y42430529D01*
X49678259Y42483269D01*
X49619037Y42523662D01*
X49605883Y42529597D01*
X49534762Y42547755D01*
X49465012Y42543945D01*
X49400292Y42519433D01*
X49344262Y42475488D01*
X49300583Y42413376D01*
X49294220Y42399490D01*
X49280641Y42337584D01*
X34261069Y42337584D01*
X34030480Y42728755D01*
X33704565Y43281636D01*
X33441338Y43281829D01*
X33178110Y43282022D01*
X33178110Y43394596D01*
X33178110Y43507170D01*
X33511482Y43504028D01*
X33844854Y43500886D01*
X34171030Y42947878D01*
X34497206Y42394871D01*
X41773444Y42394804D01*
X49049681Y42394738D01*
X49064676Y42450933D01*
X49081314Y42500413D01*
X49126614Y42582783D01*
X49188205Y42652346D01*
X49263002Y42707811D01*
X49347920Y42747886D01*
X49439875Y42771277D01*
X49535784Y42776694D01*
X49632560Y42762844D01*
X49727121Y42728435D01*
X49791411Y42690691D01*
X49863437Y42627965D01*
X49917967Y42554652D01*
X49955231Y42473574D01*
X49975454Y42387553D01*
X49978664Y42304640D01*
X49978866Y42299410D01*
G37*
G36*
X39906685Y45361532D02*
G01*
X40743690Y45358268D01*
X40805229Y45330438D01*
X40849466Y45306318D01*
X40918713Y45248826D01*
X40974066Y45175596D01*
X41012014Y45090699D01*
X41013230Y45086823D01*
X41019202Y45067126D01*
X41024190Y45048052D01*
X41028284Y45027394D01*
X41031571Y45002944D01*
X41034141Y44972494D01*
X41036080Y44933838D01*
X41037479Y44884766D01*
X41038425Y44823072D01*
X41039007Y44746548D01*
X41039313Y44652985D01*
X41039431Y44540177D01*
X41039451Y44405916D01*
X41039451Y43808478D01*
X41011997Y43740492D01*
X40984232Y43685411D01*
X40925966Y43609397D01*
X40850886Y43543490D01*
X40762787Y43490819D01*
X40665463Y43454517D01*
X40653955Y43451932D01*
X40633451Y43448888D01*
X40605541Y43446270D01*
X40568600Y43444046D01*
X40521002Y43442183D01*
X40461122Y43440650D01*
X40387335Y43439416D01*
X40298014Y43438448D01*
X40191534Y43437713D01*
X40066271Y43437181D01*
X39920597Y43436820D01*
X39752889Y43436597D01*
X38904053Y43435818D01*
X38904053Y43684258D01*
X38904053Y43932698D01*
X39696834Y43932698D01*
X40489616Y43932698D01*
X40486518Y44385213D01*
X40483420Y44837728D01*
X39776549Y44840779D01*
X39069679Y44843829D01*
X39069679Y45104312D01*
X39069679Y45364795D01*
X39906685Y45361532D01*
G37*
G36*
X23110387Y44660271D02*
G01*
X23110387Y43956359D01*
X23625012Y43956359D01*
X24139638Y43956359D01*
X24139638Y44660271D01*
X24139638Y45364184D01*
X24418039Y45364184D01*
X24696441Y45364184D01*
X24693097Y44544924D01*
X24692664Y44441010D01*
X24691997Y44295582D01*
X24691305Y44170954D01*
X24690535Y44065376D01*
X24689634Y43977100D01*
X24688550Y43904374D01*
X24687231Y43845449D01*
X24685624Y43798576D01*
X24683679Y43762004D01*
X24681341Y43733984D01*
X24678559Y43712766D01*
X24675280Y43696601D01*
X24671452Y43683738D01*
X24667024Y43672428D01*
X24626129Y43592643D01*
X24576707Y43529951D01*
X24516870Y43484334D01*
X24443394Y43452621D01*
X24432375Y43449887D01*
X24408870Y43446512D01*
X24374805Y43443808D01*
X24328309Y43441733D01*
X24267511Y43440245D01*
X24190540Y43439304D01*
X24095524Y43438866D01*
X23980594Y43438893D01*
X23843876Y43439340D01*
X23293760Y43441734D01*
X23240522Y43470059D01*
X23225633Y43478275D01*
X23183724Y43503684D01*
X23148836Y43527658D01*
X23110387Y43556931D01*
X23110387Y43496375D01*
X23110387Y43435818D01*
X22838287Y43435818D01*
X22566186Y43435818D01*
X22566186Y44400001D01*
X22566186Y45364184D01*
X22838287Y45364184D01*
X23110387Y45364184D01*
X23110387Y44660271D01*
G37*
G36*
X37614327Y44799279D02*
G01*
X37614312Y44733790D01*
X37614220Y44555703D01*
X37613993Y44399179D01*
X37613548Y44262652D01*
X37612801Y44144555D01*
X37611666Y44043321D01*
X37610060Y43957383D01*
X37607898Y43885174D01*
X37605097Y43825127D01*
X37601571Y43775677D01*
X37597237Y43735255D01*
X37592011Y43702295D01*
X37585807Y43675230D01*
X37578542Y43652494D01*
X37570132Y43632519D01*
X37560492Y43613739D01*
X37549538Y43594587D01*
X37517795Y43550443D01*
X37454895Y43496425D01*
X37373990Y43457717D01*
X37362563Y43454037D01*
X37341959Y43448901D01*
X37316908Y43444854D01*
X37284664Y43441769D01*
X37242482Y43439514D01*
X37187619Y43437960D01*
X37117330Y43436977D01*
X37028869Y43436435D01*
X36919493Y43436205D01*
X36526130Y43435818D01*
X36526130Y43684258D01*
X36526130Y43932698D01*
X36792316Y43932698D01*
X37058501Y43932698D01*
X37058501Y44388171D01*
X37058501Y44843643D01*
X36792316Y44843643D01*
X36526130Y44843643D01*
X36526130Y45103913D01*
X36526130Y45364184D01*
X36792316Y45364184D01*
X37058501Y45364184D01*
X37058501Y45577132D01*
X37058501Y45790080D01*
X37336517Y45790080D01*
X37614533Y45790080D01*
X37614327Y44799279D01*
G37*
G36*
X21273909Y44769703D02*
G01*
X21273643Y44698302D01*
X21272951Y44526376D01*
X21272243Y44375983D01*
X21271485Y44245584D01*
X21270643Y44133639D01*
X21269684Y44038605D01*
X21268573Y43958944D01*
X21267276Y43893114D01*
X21265760Y43839574D01*
X21263991Y43796785D01*
X21261934Y43763206D01*
X21259557Y43737295D01*
X21256825Y43717514D01*
X21253703Y43702320D01*
X21250159Y43690173D01*
X21219523Y43619260D01*
X21167606Y43545124D01*
X21102040Y43489169D01*
X21024133Y43452772D01*
X21011848Y43449810D01*
X20981470Y43445720D01*
X20936615Y43442474D01*
X20875448Y43440006D01*
X20796131Y43438251D01*
X20696831Y43437140D01*
X20575711Y43436610D01*
X20176433Y43435818D01*
X20176433Y43684258D01*
X20176433Y43932698D01*
X20448674Y43932698D01*
X20720915Y43932698D01*
X20717817Y44385213D01*
X20714719Y44837728D01*
X20445576Y44840908D01*
X20176433Y44844088D01*
X20176433Y45104136D01*
X20176433Y45364184D01*
X20448534Y45364184D01*
X20720634Y45364184D01*
X20720634Y45577132D01*
X20720634Y45790080D01*
X20999143Y45790080D01*
X21277651Y45790080D01*
X21273909Y44769703D01*
G37*
G36*
X28126503Y44400280D02*
G01*
X28126503Y43435818D01*
X27848581Y43435818D01*
X27570659Y43435818D01*
X27567607Y44136773D01*
X27564556Y44837728D01*
X27049931Y44837728D01*
X26535306Y44837728D01*
X26532254Y44136773D01*
X26529203Y43435818D01*
X26257196Y43435818D01*
X25985189Y43435818D01*
X25985189Y44204216D01*
X25985345Y44365578D01*
X25985916Y44530475D01*
X25986909Y44672023D01*
X25988327Y44790387D01*
X25990171Y44885732D01*
X25992445Y44958224D01*
X25995151Y45008026D01*
X25998292Y45035306D01*
X26000642Y45045996D01*
X26032244Y45139811D01*
X26079787Y45220411D01*
X26141250Y45285034D01*
X26214613Y45330919D01*
X26275036Y45358268D01*
X27200769Y45361505D01*
X28126503Y45364741D01*
X28126503Y44400280D01*
G37*
G36*
X34340129Y45363388D02*
G01*
X34415733Y45359326D01*
X34476578Y45350833D01*
X34527659Y45336823D01*
X34573973Y45316207D01*
X34620517Y45287897D01*
X34680578Y45247479D01*
X34680578Y45305831D01*
X34680578Y45364184D01*
X34958594Y45364184D01*
X35236610Y45364184D01*
X35236610Y44400001D01*
X35236610Y43435818D01*
X34958688Y43435818D01*
X34680766Y43435818D01*
X34677715Y44136773D01*
X34674663Y44837728D01*
X34387774Y44840896D01*
X34100886Y44844064D01*
X34100886Y45104124D01*
X34100886Y45364184D01*
X34270280Y45364184D01*
X34340129Y45363388D01*
G37*
G36*
X27605963Y40590593D02*
G01*
X27605963Y39531766D01*
X26931626Y39531766D01*
X26257290Y39531766D01*
X26257290Y39650071D01*
X26257290Y39768375D01*
X26789661Y39768375D01*
X27322032Y39768375D01*
X27322032Y40708897D01*
X27322032Y41649419D01*
X27463997Y41649419D01*
X27605963Y41649419D01*
X27605963Y40590593D01*
G37*
G36*
X46511039Y44612949D02*
G01*
X46511039Y43435818D01*
X46233024Y43435818D01*
X45955008Y43435818D01*
X45955008Y44612949D01*
X45955008Y45790080D01*
X46233024Y45790080D01*
X46511039Y45790080D01*
X46511039Y44612949D01*
G37*
G04 #@! TD*
M02*
